<?xml version="1.0" encoding="UTF-8"?>
<svg version="1.1" xmlns="http://www.w3.org/2000/svg" width="461" height="439">
<path d="M0 0 C1.29088531 0.00022659 1.29088531 0.00022659 2.60784912 0.00045776 C3.52777649 0.01078033 4.44770386 0.02110291 5.39550781 0.03173828 C6.34427795 0.03456818 7.2930481 0.03739807 8.27056885 0.04031372 C11.29671921 0.0514963 14.32257211 0.07659749 17.34863281 0.10205078 C19.40201395 0.11208306 21.45539973 0.12120848 23.50878906 0.12939453 C28.53885135 0.15142938 33.56869167 0.18594616 38.59863281 0.22705078 C36.90975377 4.86401362 34.4382216 7.85357211 31.03613281 11.35205078 C27.11289784 15.48208189 23.35114316 19.65193441 19.78613281 24.10205078 C16.79466439 27.82656371 13.70015994 31.2434626 10.27050781 34.56298828 C7.8677865 36.95448192 5.67839099 39.51203129 3.46582031 42.07861328 C1.45892944 44.38779734 -0.59304344 46.65112715 -2.65136719 48.91455078 C-6.14946621 52.78744613 -9.54482316 56.73210982 -12.90136719 60.72705078 C-16.95432255 65.55085683 -21.09690619 70.27522549 -25.33105469 74.94189453 C-27.32954276 77.14777287 -29.30961398 79.36785205 -31.27636719 81.60205078 C-32.076875 82.51083984 -32.076875 82.51083984 -32.89355469 83.43798828 C-33.39113281 84.02837891 -33.88871094 84.61876953 -34.40136719 85.22705078 C-35.27148438 86.20544922 -35.27148438 86.20544922 -36.15917969 87.20361328 C-37.56486068 89.09765271 -37.56486068 89.09765271 -37.40136719 91.10205078 C-35.92308649 94.24339726 -33.69065345 96.65849918 -31.40136719 99.22705078 C-26.92772844 104.37449147 -22.75335489 109.65466337 -18.70214844 115.14501953 C-16.22047659 118.46936433 -13.66515466 121.72601049 -11.08886719 124.97705078 C-6.56912913 130.69129671 -2.17457608 136.490565 2.18334961 142.32885742 C6.92497566 148.67794469 11.75324006 154.95700297 16.59863281 161.22705078 C19.02300565 164.37357722 21.4453799 167.52161245 23.86425781 170.67236328 C25.9290867 173.36097481 28.00495639 176.04083577 30.08300781 178.71923828 C31.27581933 180.26342942 32.46852864 181.80769951 33.66113281 183.35205078 C34.23387939 184.08713867 34.80662598 184.82222656 35.39672852 185.57958984 C36.19469849 186.6155127 36.19469849 186.6155127 37.00878906 187.67236328 C37.48453369 188.28611816 37.96027832 188.89987305 38.45043945 189.53222656 C39.59863281 191.22705078 39.59863281 191.22705078 40.59863281 194.22705078 C33.99789162 194.52242174 27.39659711 194.76975399 20.79272461 194.98388672 C18.54686893 195.06236438 16.30136819 195.1518008 14.05639648 195.25244141 C10.82729541 195.39529038 7.5989644 195.49855669 4.36816406 195.59423828 C2.86477226 195.67350052 2.86477226 195.67350052 1.33100891 195.75436401 C-5.48669935 195.90276469 -5.48669935 195.90276469 -8.1254425 193.9533844 C-10.62523901 191.01463964 -12.42718854 187.53471157 -14.40136719 184.22705078 C-16.72799286 181.32178246 -19.13015661 178.49088589 -21.53808594 175.65283203 C-23.40136719 173.22705078 -23.40136719 173.22705078 -23.40136719 171.22705078 C-24.06136719 171.22705078 -24.72136719 171.22705078 -25.40136719 171.22705078 C-26.39230563 169.81322778 -27.37446487 168.3919929 -28.29931641 166.93408203 C-30.03401244 164.24710936 -32.0067488 161.75486102 -33.96386719 159.22705078 C-34.39731445 158.66655029 -34.83076172 158.1060498 -35.27734375 157.52856445 C-38.82655044 152.94703475 -42.40536036 148.38874285 -45.99316406 143.83740234 C-48.72275699 140.37262369 -51.4372773 136.89671017 -54.13964844 133.41064453 C-54.77418945 132.59233154 -55.40873047 131.77401855 -56.0625 130.9309082 C-57.31171892 129.31869719 -58.55980145 127.70560488 -59.80664062 126.09155273 C-60.37543945 125.35767334 -60.94423828 124.62379395 -61.53027344 123.86767578 C-62.03631104 123.2131543 -62.54234863 122.55863281 -63.0637207 121.88427734 C-64.44646023 120.11121996 -64.44646023 120.11121996 -66.40136719 118.22705078 C-72.04963496 123.78339377 -77.66247836 129.30701013 -82.76855469 135.37548828 C-84.40136719 137.22705078 -84.40136719 137.22705078 -86.95922852 139.10131836 C-90.65313614 143.82920992 -90.12907034 148.24706407 -90.10839844 154.09033203 C-90.12351974 155.23745163 -90.13864105 156.38457123 -90.15422058 157.56645203 C-90.19715136 161.22435074 -90.20594137 164.88142506 -90.21386719 168.53955078 C-90.2370071 171.02199466 -90.26237137 173.50441887 -90.29003906 175.98681641 C-90.35294481 182.0669023 -90.3878362 188.14666534 -90.40136719 194.22705078 C-111.09731751 195.39846932 -111.09731751 195.39846932 -119.90136719 195.35205078 C-120.69671875 195.35591797 -121.49207031 195.35978516 -122.31152344 195.36376953 C-125.59916094 195.35820669 -128.2609022 195.27387245 -131.40136719 194.22705078 C-131.63338949 182.50071723 -131.81091099 170.77493231 -131.91948891 159.04676819 C-131.97161082 153.60033925 -132.04226433 148.15548407 -132.15576172 142.70996094 C-132.2646733 137.45136133 -132.32426097 132.19427198 -132.35013962 126.93463135 C-132.3685727 124.93141911 -132.4045719 122.92828674 -132.45866776 120.92572021 C-132.86598585 105.21800651 -132.86598585 105.21800651 -129.22558594 100.2693634 C-126.70243881 98.23347117 -124.26639278 96.72561035 -121.40136719 95.22705078 C-120.26334274 94.32860181 -119.14930239 93.39807436 -118.07324219 92.42626953 C-112.41406849 87.56149856 -106.69222427 82.79448549 -100.83886719 78.16455078 C-100.25524414 77.69944092 -99.67162109 77.23433105 -99.0703125 76.75512695 C-96.23458484 74.52900624 -93.65102174 72.85187806 -90.40136719 71.22705078 C-90.07136719 78.48705078 -89.74136719 85.74705078 -89.40136719 93.22705078 C-84.7698512 88.15443803 -80.22138325 83.06802303 -75.90136719 77.72705078 C-70.09578219 70.56141616 -64.01162117 63.66335071 -57.40136719 57.22705078 C-53.1920712 53.11992217 -49.1915683 48.91523904 -45.35058594 44.46142578 C-43.07116025 41.84853702 -40.73924366 39.28775057 -38.40136719 36.72705078 C-34.94492948 32.93695996 -31.53292864 29.11649045 -28.17089844 25.24267578 C-26.15021763 22.94097314 -24.08824101 20.679407 -22.02636719 18.41455078 C-17.95559932 13.92626826 -14.16988407 9.25443855 -10.44433594 4.47705078 C-7.2970903 1.01086821 -4.64145641 -0.02730268 0 0 Z " fill="#565656" transform="translate(345.4013671875,113.77294921875)"/>
<path d="M0 0 C0.99 0.33 1.98 0.66 3 1 C-2.94855523 6.48258507 -8.89564007 11.95721483 -15.0078125 17.2578125 C-17.36020635 19.31500399 -19.68034966 21.40596915 -22 23.5 C-24.98062721 26.18983431 -27.97245233 28.86310364 -31 31.5 C-36.55799763 36.34371681 -42.02849298 41.28668079 -47.47265625 46.2578125 C-51.70454402 50.10742197 -55.98767255 53.84097753 -60.4375 57.4375 C-64.24087503 60.51336588 -67.90082652 63.68753166 -71.5 67 C-75.9698512 71.11378909 -80.59044893 74.97087297 -85.31640625 78.78515625 C-87.94708557 80.95632827 -90.47942424 83.20241357 -93 85.5 C-97.29991791 89.41891252 -101.75919547 93.09170869 -106.28125 96.75 C-108.92147729 98.93501569 -111.4672972 101.19171391 -114 103.5 C-118.22013944 107.34191939 -122.58027184 110.96115221 -127.015625 114.55078125 C-130.38761487 117.31810802 -133.69662321 120.15150415 -137 123 C-142.01299606 127.31951465 -147.08538117 131.55097766 -152.22265625 135.72265625 C-155.90635122 138.74318251 -159.53415933 141.82724515 -163.16210938 144.91430664 C-166.59061398 147.82579032 -170.0597861 150.67766937 -173.5625 153.5 C-177.53074375 156.72419804 -181.32012836 160.08352458 -185.0625 163.5625 C-190.17699235 168.31517967 -195.50822721 172.69306638 -201 177 C-207.11271092 181.9161408 -213.12128777 186.94153872 -219.0625 192.0625 C-223.83248902 196.17322748 -228.65802022 200.18687418 -233.59765625 204.09375 C-236.12721017 206.10094075 -238.62825938 208.13965331 -241.125 210.1875 C-246.31787907 214.44551477 -251.52634342 218.68400409 -256.74023438 222.91625977 C-260.19314642 225.71911158 -263.64417071 228.52418895 -267.08984375 231.3359375 C-275.0916768 237.86138552 -283.14915546 244.30618386 -291.28662109 250.66162109 C-294.17322894 252.91644928 -297.05580563 255.17639751 -299.9375 257.4375 C-300.51185791 257.88738281 -301.08621582 258.33726562 -301.67797852 258.80078125 C-304.72389568 261.19166703 -307.75180865 263.60204401 -310.7578125 266.04296875 C-317.65590236 271.63654116 -324.61633947 276.88323272 -331.96875 281.87109375 C-335.79337561 284.55720323 -339.34900325 287.49720213 -342.93359375 290.4921875 C-347.38130395 294.12967788 -351.96048077 297.58759976 -356.53466797 301.0637207 C-361.01955583 304.47566178 -365.46251809 307.93265091 -369.875 311.4375 C-375.98857427 316.27708143 -382.24618478 320.90739547 -388.53491211 325.51611328 C-394.53087466 329.91087788 -400.49321259 334.34810652 -406.4375 338.8125 C-407.69143555 339.75283081 -407.69143555 339.75283081 -408.97070312 340.7121582 C-412.60945284 343.44302973 -416.24272986 346.18010056 -419.85546875 348.9453125 C-420.41758057 349.37352295 -420.97969238 349.8017334 -421.55883789 350.24291992 C-423.00299486 351.34444136 -424.44309524 352.4512758 -425.8828125 353.55859375 C-428 355 -428 355 -430 355 C-428.42131841 350.6457279 -425.02577562 348.22094904 -421.5625 345.375 C-420.29685305 344.31668558 -419.03254853 343.25676385 -417.76953125 342.1953125 C-417.13740723 341.66454102 -416.5052832 341.13376953 -415.85400391 340.58691406 C-412.16597915 337.43019021 -408.64439651 334.09147364 -405.109375 330.765625 C-403 329 -403 329 -401 329 C-401 328.34 -401 327.68 -401 327 C-399.3623728 325.54597658 -397.66265804 324.16151322 -395.9375 322.8125 C-392.67697356 320.20987166 -389.54436814 317.6659447 -386.6875 314.625 C-383.53759123 311.3550947 -380.03251099 308.63107743 -376.4375 305.875 C-370.6686269 301.44453016 -365.32884932 296.70484305 -360.04956055 291.70556641 C-355.72779432 287.62792305 -351.23601385 283.84115101 -346.59765625 280.125 C-343.03219901 277.20829513 -339.64042046 274.1150518 -336.23046875 271.01953125 C-328.47775629 264 -328.47775629 264 -326 264 C-325.76925781 263.42378906 -325.53851563 262.84757812 -325.30078125 262.25390625 C-323.66638728 259.42193831 -321.76108886 257.95341514 -319.1875 255.9375 C-318.19878906 255.14988281 -317.21007812 254.36226562 -316.19140625 253.55078125 C-315.66820801 253.13521973 -315.14500977 252.7196582 -314.60595703 252.29150391 C-311.90397921 250.11858468 -309.26576673 247.87158672 -306.625 245.625 C-306.08335205 245.16552979 -305.5417041 244.70605957 -304.98364258 244.23266602 C-303.32167945 242.8226566 -301.66069959 241.4114973 -300 240 C-292.98485196 234.03753537 -285.94352709 228.11922061 -278.8046875 222.3046875 C-275.7217179 219.77132808 -272.66907797 217.20483456 -269.625 214.625 C-268.80793579 213.93277344 -268.80793579 213.93277344 -267.97436523 213.2265625 C-265.2367444 210.90456338 -262.50428336 208.57671992 -259.77734375 206.2421875 C-253.61545998 200.97996497 -247.35446924 195.89055108 -240.95605469 190.91845703 C-236.89033641 187.74318351 -233.011688 184.41772502 -229.19140625 180.94921875 C-225.8669373 177.99215992 -222.40117136 175.21532971 -218.9453125 172.4140625 C-216.35522243 170.29115048 -213.80128278 168.13507329 -211.25683594 165.95825195 C-205.91484826 161.38911019 -200.47599654 157.01228133 -194.87329102 152.76757812 C-190.43230623 149.3827015 -186.18068415 145.80806756 -181.94311523 142.17358398 C-178.06327525 138.8607037 -174.09418988 135.68816695 -170.0625 132.5625 C-165.25825832 128.83430191 -160.59221227 124.98628646 -156 121 C-150.93134802 116.60279997 -145.75616145 112.39286166 -140.4543457 108.28076172 C-135.78913155 104.65147394 -131.23227266 100.90357825 -126.6875 97.125 C-118.86660328 90.63339613 -110.84385993 84.43581786 -102.72460938 78.32324219 C-101.16829563 77.1291283 -99.65164935 75.8837425 -98.140625 74.6328125 C-96 73 -96 73 -94 73 C-94 72.34 -94 71.68 -94 71 C-92.32878043 69.55512371 -90.58175591 68.19801772 -88.8125 66.875 C-87.61709518 65.97408081 -86.42178977 65.07302972 -85.2265625 64.171875 C-84.22351074 63.42067383 -84.22351074 63.42067383 -83.20019531 62.65429688 C-79.91490601 60.18413261 -76.65260049 57.68411597 -73.38720703 55.18774414 C-64.33279094 48.2696069 -55.23990412 41.40449687 -46.11328125 34.58203125 C-43.77108823 32.82863352 -41.43220816 31.07087552 -39.09375 29.3125 C-30.75756549 23.04648648 -22.41573967 16.79206536 -13.9753418 10.66674805 C-9.77096895 7.60556169 -5.70820236 4.4046051 -1.734375 1.046875 C-1.16203125 0.70140625 -0.5896875 0.3559375 0 0 Z " fill="#65BC72" transform="translate(430,20)"/>
<path d="M0 0 C0.81605209 -0.00095673 1.63210419 -0.00191345 2.47288513 -0.00289917 C4.1986397 -0.00358006 5.92439683 -0.00173211 7.65014648 0.00244141 C10.30132758 0.00779782 12.95233978 0.00248983 15.60351562 -0.00390625 C17.27734413 -0.00324559 18.95117252 -0.00196467 20.625 0 C21.42289444 -0.00202423 22.22078888 -0.00404846 23.04286194 -0.00613403 C28.63113831 0.01785706 28.63113831 0.01785706 29.74609375 1.1328125 C29.86952527 2.90726703 29.92401795 4.68655659 29.95141602 6.46508789 C29.98133385 8.1806765 29.98133385 8.1806765 30.01185608 9.93092346 C30.02856857 11.18477341 30.04528107 12.43862335 30.0625 13.73046875 C30.0832811 15.02609238 30.10406219 16.321716 30.12547302 17.65660095 C30.16958367 20.42166596 30.21043273 23.18675344 30.2487793 25.9519043 C30.30633192 30.09759598 30.37257853 34.24312198 30.43945312 38.38867188 C30.52574139 43.75065856 30.59144424 49.112446 30.64575195 54.47485352 C30.69771793 59.40596352 30.80874054 64.32913149 30.97729492 69.25756836 C31.03053676 71.41389726 31.08368393 73.5702285 31.13671875 75.7265625 C31.18377457 76.69421036 31.23083038 77.66185822 31.27931213 78.65882874 C31.36492689 83.33274366 31.18475538 86.24631344 28.04125977 89.85180664 C25.95063809 91.81014327 23.8263183 93.56860291 21.3203125 94.97265625 C18.03007043 96.92648379 15.16882968 99.15042969 12.24609375 101.6328125 C11.37082031 102.34566406 10.49554688 103.05851562 9.59375 103.79296875 C6.26779732 106.52581601 2.97135318 109.29171936 -0.31640625 112.0703125 C-1.15751953 112.77994141 -1.15751953 112.77994141 -2.015625 113.50390625 C-4.16403451 115.32423352 -6.26181373 117.14071998 -8.25390625 119.1328125 C-9.24390625 119.1328125 -10.23390625 119.1328125 -11.25390625 119.1328125 C-10.92390625 80.1928125 -10.59390625 41.2528125 -10.25390625 1.1328125 C-7.03737346 -0.4754539 -3.53239096 -0.00898435 0 0 Z " fill="#565656" transform="translate(161.25390625,113.8671875)"/>
<path d="M0 0 C0.99 0.495 0.99 0.495 2 1 C2.62150593 20.88818965 0.81743509 39.70986511 -12.5 55.5625 C-13.64203127 56.7328887 -14.80874728 57.8797491 -16 59 C-16.61488281 59.61101562 -17.22976562 60.22203125 -17.86328125 60.8515625 C-22.73408996 65.43929816 -27.82241864 68.46963475 -34 71 C-35.36898437 71.59167969 -35.36898437 71.59167969 -36.765625 72.1953125 C-50.78733603 77.23326395 -71.81597285 77.87792153 -86 73 C-86.33 72.34 -86.66 71.68 -87 71 C-83.23809901 67.08847794 -79.25760602 63.67203014 -75 60.3125 C-74.33991943 59.787771 -73.67983887 59.26304199 -72.99975586 58.72241211 C-68.36643391 55.04966369 -63.68480479 51.44443461 -58.98413086 47.85839844 C-53.91243996 43.97094852 -48.96532204 39.93586561 -44.01855469 35.89135742 C-39.65782228 32.33086024 -35.25508612 28.8326262 -30.8125 25.375 C-25.12862792 20.94341121 -19.61330739 16.33968181 -14.1328125 11.66015625 C-9.48494375 7.69682352 -4.7425797 3.84918793 0 0 Z " fill="#565656" transform="translate(190,237)"/>
<path d="M0 0 C0.22412628 4.41049877 0.38651489 8.81790708 0.49438477 13.23242188 C0.53938233 14.7304054 0.60060971 16.2279994 0.67895508 17.72460938 C1.30967863 30.09173789 1.30967863 30.09173789 -1.80175781 34.62524414 C-4.09264362 36.6799036 -6.40880793 38.34560134 -9 40 C-10.19513015 40.94421971 -11.3811766 41.90013592 -12.5546875 42.87109375 C-13.65943886 43.72916886 -14.76621738 44.58464036 -15.875 45.4375 C-17.08004732 46.37550582 -18.28446613 47.31431958 -19.48828125 48.25390625 C-20.07689941 48.71297363 -20.66551758 49.17204102 -21.27197266 49.64501953 C-23.88924322 51.69727322 -26.47933076 53.77987893 -29.0625 55.875 C-30.31740234 56.89207031 -30.31740234 56.89207031 -31.59765625 57.9296875 C-34.11720635 60.03986573 -34.11720635 60.03986573 -36.68359375 62.7578125 C-39 65 -39 65 -41 65 C-41 43.55 -41 22.1 -41 0 C-32.8015625 -0.2784375 -32.8015625 -0.2784375 -24.4375 -0.5625 C-22.72618896 -0.62381104 -21.01487793 -0.68512207 -19.25170898 -0.74829102 C-17.87485262 -0.79231312 -16.49798163 -0.83588112 -15.12109375 -0.87890625 C-14.42278442 -0.90561401 -13.7244751 -0.93232178 -13.00500488 -0.95983887 C-8.51759627 -1.09276999 -4.40511386 -0.74718379 0 0 Z " fill="#575656" transform="translate(255,115)"/>
<path d="M0 0 C2.20165004 1.61454337 2.94723496 2.82364615 3.875 5.375 C3.875 6.365 3.875 7.355 3.875 8.375 C0.875 10.375 0.875 10.375 -2.125 11.375 C-2.23714844 11.9525 -2.34929687 12.53 -2.46484375 13.125 C-3.46634546 16.53840229 -6.01533884 18.21362986 -8.6875 20.375 C-9.26395264 20.85211426 -9.84040527 21.32922852 -10.43432617 21.82080078 C-15.48785897 25.95875551 -20.70927635 29.86600316 -25.96240234 33.74536133 C-30.86562704 37.38034922 -35.60680631 41.17622262 -40.3125 45.0625 C-46.0658978 49.80626027 -51.94807217 54.10521523 -58.12890625 58.28125 C-61.94692311 60.94938173 -65.48617234 63.88236961 -69.05859375 66.8671875 C-73.50630395 70.50467788 -78.08548077 73.96259976 -82.65966797 77.4387207 C-87.14455583 80.85066178 -91.58751809 84.30765091 -96 87.8125 C-102.11357427 92.65208143 -108.37118478 97.28239547 -114.65991211 101.89111328 C-120.65587466 106.28587788 -126.61821259 110.72310652 -132.5625 115.1875 C-133.39845703 115.81438721 -134.23441406 116.44127441 -135.09570312 117.0871582 C-138.73445284 119.81802973 -142.36772986 122.55510056 -145.98046875 125.3203125 C-146.82363647 125.96262817 -146.82363647 125.96262817 -147.68383789 126.61791992 C-149.12799486 127.71944136 -150.56809524 128.8262758 -152.0078125 129.93359375 C-154.125 131.375 -154.125 131.375 -156.125 131.375 C-154.54631841 127.0207279 -151.15077562 124.59594904 -147.6875 121.75 C-146.42185305 120.69168558 -145.15754853 119.63176385 -143.89453125 118.5703125 C-143.26240723 118.03954102 -142.6302832 117.50876953 -141.97900391 116.96191406 C-138.29097915 113.80519021 -134.76939651 110.46647364 -131.234375 107.140625 C-129.125 105.375 -129.125 105.375 -127.125 105.375 C-127.125 104.715 -127.125 104.055 -127.125 103.375 C-125.4873728 101.92097658 -123.78765804 100.53651322 -122.0625 99.1875 C-118.80197356 96.58487166 -115.66936814 94.0409447 -112.8125 91 C-109.66259123 87.7300947 -106.15751099 85.00607743 -102.5625 82.25 C-96.7936269 77.81953016 -91.45384932 73.07984305 -86.17456055 68.08056641 C-81.85279432 64.00292305 -77.36101385 60.21615101 -72.72265625 56.5 C-69.15719901 53.58329513 -65.76542046 50.4900518 -62.35546875 47.39453125 C-54.60275629 40.375 -54.60275629 40.375 -52.125 40.375 C-51.89425781 39.79878906 -51.66351563 39.22257812 -51.42578125 38.62890625 C-49.79138728 35.79693831 -47.88608886 34.32841514 -45.3125 32.3125 C-44.32378906 31.52488281 -43.33507812 30.73726563 -42.31640625 29.92578125 C-41.79320801 29.51021973 -41.27000977 29.0946582 -40.73095703 28.66650391 C-38.02896658 26.49357452 -35.39109003 24.24622411 -32.75 22 C-32.21125244 21.54415527 -31.67250488 21.08831055 -31.11743164 20.61865234 C-28.28301959 18.21865707 -25.46224075 15.80426606 -22.65625 13.37109375 C-22.08567871 12.8797998 -21.51510742 12.38850586 -20.92724609 11.88232422 C-19.84790192 10.95254855 -18.77237339 10.01831525 -17.70166016 9.07861328 C-14.04844232 5.94170111 -10.332769 3.66325853 -6.125 1.375 C-5.403125 0.92125 -4.68125 0.4675 -3.9375 0 C-2.125 -0.625 -2.125 -0.625 0 0 Z " fill="#16BBD0" transform="translate(156.125,243.625)"/>
<path d="M0 0 C0.99 0.33 1.98 0.66 3 1 C-2.94855523 6.48258507 -8.89564007 11.95721483 -15.0078125 17.2578125 C-17.36020635 19.31500399 -19.68034966 21.40596915 -22 23.5 C-24.98062721 26.18983431 -27.97245233 28.86310364 -31 31.5 C-36.55799763 36.34371681 -42.02849298 41.28668079 -47.47265625 46.2578125 C-51.70454402 50.10742197 -55.98767255 53.84097753 -60.4375 57.4375 C-64.24087503 60.51336588 -67.90082652 63.68753166 -71.5 67 C-75.9698512 71.11378909 -80.59044893 74.97087297 -85.31640625 78.78515625 C-87.94708557 80.95632827 -90.47942424 83.20241357 -93 85.5 C-97.29991791 89.41891252 -101.75919547 93.09170869 -106.28125 96.75 C-108.92147729 98.93501569 -111.4672972 101.19171391 -114 103.5 C-118.2113121 107.33388318 -122.554493 110.95223549 -126.99609375 114.515625 C-129.25119226 116.38069997 -131.43089939 118.27137938 -133.59765625 120.234375 C-134.52239746 121.06134888 -134.52239746 121.06134888 -135.46582031 121.9050293 C-136.67267512 122.98823095 -137.86921142 124.08307045 -139.05371094 125.19067383 C-141.90899426 127.73435884 -143.55929766 128.9561816 -147.41796875 129.33984375 C-148.27003906 129.22769531 -149.12210937 129.11554688 -150 129 C-149.67 128.01 -149.34 127.02 -149 126 C-149.99 126 -150.98 126 -152 126 C-152.33 125.34 -152.66 124.68 -153 124 C-153.66 124 -154.32 124 -155 124 C-154.375 122.0625 -154.375 122.0625 -153 120 C-149.875 119.25 -149.875 119.25 -147 119 C-147 118.34 -147 117.68 -147 117 C-145.515 116.01 -145.515 116.01 -144 115 C-143.67 114.01 -143.34 113.02 -143 112 C-141.68 112 -140.36 112 -139 112 C-139 111.01 -139 110.02 -139 109 C-138.01 108.505 -138.01 108.505 -137 108 C-136.41605469 106.9171875 -136.41605469 106.9171875 -135.8203125 105.8125 C-133.39601443 102.06680342 -130.36000678 99.73639738 -126.875 97 C-126.17721436 96.44256104 -125.47942871 95.88512207 -124.76049805 95.31079102 C-117.50628406 89.54342049 -110.13548915 83.92478438 -102.74072266 78.33935547 C-101.17859139 77.13741267 -99.65479559 75.88603127 -98.13671875 74.62890625 C-96 73 -96 73 -94 73 C-94 72.34 -94 71.68 -94 71 C-92.32878043 69.55512371 -90.58175591 68.19801772 -88.8125 66.875 C-87.61709518 65.97408081 -86.42178977 65.07302972 -85.2265625 64.171875 C-84.22351074 63.42067383 -84.22351074 63.42067383 -83.20019531 62.65429688 C-79.91490601 60.18413261 -76.65260049 57.68411597 -73.38720703 55.18774414 C-64.33279094 48.2696069 -55.23990412 41.40449687 -46.11328125 34.58203125 C-43.77108823 32.82863352 -41.43220816 31.07087552 -39.09375 29.3125 C-30.75756549 23.04648648 -22.41573967 16.79206536 -13.9753418 10.66674805 C-9.77096895 7.60556169 -5.70820236 4.4046051 -1.734375 1.046875 C-1.16203125 0.70140625 -0.5896875 0.3559375 0 0 Z " fill="#A8CD44" transform="translate(430,20)"/>
<path d="M0 0 C2.21875 0.48828125 2.21875 0.48828125 4.21875 3.48828125 C3.8946131 6.81068449 3.61098697 8.09604428 1.21875 10.48828125 C1.71375 11.97328125 1.71375 11.97328125 2.21875 13.48828125 C1.22875 13.81828125 0.23875 14.14828125 -0.78125 14.48828125 C-0.89082031 15.06449219 -1.00039062 15.64070312 -1.11328125 16.234375 C-2.13502013 19.68199683 -4.76213357 21.37304839 -7.46875 23.55078125 C-8.0474585 24.02829834 -8.62616699 24.50581543 -9.22241211 24.99780273 C-13.95087476 28.87728997 -18.76050908 32.65705964 -23.59155273 36.40771484 C-28.67007532 40.35854754 -33.57428135 44.49352076 -38.453125 48.6875 C-40.78125 50.48828125 -40.78125 50.48828125 -42.78125 50.48828125 C-42.78125 48.48828125 -42.78125 48.48828125 -40.78125 46.48828125 C-38.65625 45.86328125 -38.65625 45.86328125 -36.78125 45.48828125 C-38.06557339 41.99122996 -38.06557339 41.99122996 -39.78125 38.48828125 C-43.54749671 37.23286568 -45.15313934 38.11766167 -48.78125 39.48828125 C-45.11429741 35.72555005 -41.28800768 32.25926638 -37.28125 28.86328125 C-36.66958984 28.34258057 -36.05792969 27.82187988 -35.42773438 27.28540039 C-34.16223796 26.20871839 -32.89595982 25.13295455 -31.62890625 24.05810547 C-29.9046079 22.59308983 -28.18582048 21.12191154 -26.46875 19.6484375 C-23.26128522 16.90204579 -20.0272753 14.18892932 -16.78125 11.48828125 C-16.17152344 10.97749023 -15.56179687 10.46669922 -14.93359375 9.94042969 C-13.0605224 8.37985741 -11.17333138 6.83822198 -9.28125 5.30078125 C-8.70568359 4.81859131 -8.13011719 4.33640137 -7.53710938 3.83959961 C-5.03971006 1.83852539 -3.18026399 0.55833286 0 0 Z " fill="#51B98E" transform="translate(196.78125,206.51171875)"/>
<path d="M0 0 C2.593696 1.945272 4.7682817 3.68246011 6.6875 6.3125 C10.17572778 10.36638634 14.56286611 13.06166897 19 16 C17.43626126 20.22605343 14.26881617 22.56339412 10.875 25.3125 C9.69446862 26.28152493 8.51477957 27.25157695 7.3359375 28.22265625 C6.76327148 28.6933252 6.19060547 29.16399414 5.60058594 29.64892578 C2.87287546 31.95141965 0.31604677 34.44137184 -2.21875 36.953125 C-4 38 -4 38 -6.4921875 37.875 C-11.62133571 36.08539066 -14.83912526 31.51265497 -18.0625 27.3125 C-19 25 -19 25 -18.38671875 23.28125 C-16.42111339 20.04769075 -14.10864532 17.14199293 -11.75 14.1875 C-11.25781982 13.56601074 -10.76563965 12.94452148 -10.25854492 12.30419922 C-6.93119181 8.11964272 -3.53445066 4.01207913 0 0 Z " fill="#515253" transform="translate(83,257)"/>
<path d="M0 0 C-0.33 0.99 -0.66 1.98 -1 3 C-1.66 3 -2.32 3 -3 3 C-3 3.99 -3 4.98 -3 6 C-4.32 6 -5.64 6 -7 6 C-7.103125 6.639375 -7.20625 7.27875 -7.3125 7.9375 C-7.539375 8.618125 -7.76625 9.29875 -8 10 C-8.99 10.33 -9.98 10.66 -11 11 C-11 11.66 -11 12.32 -11 13 C-12.7015625 13.680625 -12.7015625 13.680625 -14.4375 14.375 C-18.04721692 15.57095806 -18.04721692 15.57095806 -19 18 C-17.68 17.67 -16.36 17.34 -15 17 C-15.495 18.485 -15.495 18.485 -16 20 C-15.01 20 -14.02 20 -13 20 C-13 20.66 -13 21.32 -13 22 C-12.01 22.66 -11.02 23.32 -10 24 C-15.80014501 29.45687112 -21.69296766 34.63796806 -28 39.5 C-33.41014529 43.67554129 -38.49817105 48.04571122 -43.51171875 52.6953125 C-46.94226756 55.8727439 -50.46438578 58.94052867 -54 62 C-54.66 61.34 -55.32 60.68 -56 60 C-55.34 60 -54.68 60 -54 60 C-54 57.36 -54 54.72 -54 52 C-53.34 52 -52.68 52 -52 52 C-52.495 50.515 -52.495 50.515 -53 49 C-55.97 49.495 -55.97 49.495 -59 50 C-58.77793205 46.69195336 -57.86014569 45.87550304 -55.33203125 43.625 C-54.16556531 42.74107315 -52.9918571 41.86665235 -51.8125 41 C-50.52915141 40.02619701 -49.24796276 39.0495421 -47.96875 38.0703125 C-47.31003906 37.56661133 -46.65132812 37.06291016 -45.97265625 36.54394531 C-42.83321802 34.08679094 -39.82214126 31.48834951 -36.8125 28.875 C-30.95967314 23.80886955 -25.01298788 18.87563386 -19 14 C-17.06169258 12.4176552 -15.1241884 10.83432596 -13.1875 9.25 C-11.83398438 8.14591797 -11.83398438 8.14591797 -10.453125 7.01953125 C-8.42481386 5.34972733 -6.42757808 3.65225175 -4.4375 1.9375 C-2 0 -2 0 0 0 Z " fill="#82BC57" transform="translate(294,126)"/>
<path d="M0 0 C0.5534764 2.07553648 1 3.84365964 1 6 C2.98 6.66 4.96 7.32 7 8 C7.33 6.68 7.66 5.36 8 4 C9.32 4.33 10.64 4.66 12 5 C7.37507617 9.90904884 2.40617492 14.1881614 -2.84375 18.4140625 C-6.47055475 21.35678323 -9.98223899 24.42851547 -13.5 27.5 C-18.92804836 32.23522347 -24.42082573 36.86226033 -30.0234375 41.390625 C-31.88238638 42.84843176 -31.88238638 42.84843176 -33 44 C-34.99958364 44.04080783 -37.00045254 44.04254356 -39 44 C-38.67 43.01 -38.34 42.02 -38 41 C-38.99 41 -39.98 41 -41 41 C-41.33 40.34 -41.66 39.68 -42 39 C-42.66 39 -43.32 39 -44 39 C-43.375 37.0625 -43.375 37.0625 -42 35 C-38.875 34.25 -38.875 34.25 -36 34 C-36 33.34 -36 32.68 -36 32 C-35.01 31.34 -34.02 30.68 -33 30 C-32.67 29.01 -32.34 28.02 -32 27 C-30.68 27 -29.36 27 -28 27 C-28 26.01 -28 25.02 -28 24 C-27.34 23.67 -26.68 23.34 -26 23 C-25.62359375 22.2884375 -25.2471875 21.576875 -24.859375 20.84375 C-22.28022577 16.89916883 -18.92953104 14.39393773 -15.25 11.5 C-14.21359375 10.66662109 -14.21359375 10.66662109 -13.15625 9.81640625 C-8.87074259 6.3928336 -4.48996215 3.1500258 0 0 Z " fill="#90C445" transform="translate(319,105)"/>
<path d="M0 0 C1.1725131 0.95117134 2.33787015 1.91117009 3.5 2.875 C4.47453125 3.67550781 4.47453125 3.67550781 5.46875 4.4921875 C5.9740625 4.98976563 6.479375 5.48734375 7 6 C7 6.66 7 7.32 7 8 C4.99332305 9.70171085 2.97501945 11.29543215 0.875 12.875 C-4.32717976 16.87050924 -9.40836478 20.96476704 -14.375 25.25 C-14.95813965 25.75225098 -15.5412793 26.25450195 -16.14208984 26.77197266 C-19.98718834 30.09648369 -23.7930056 33.46317903 -27.546875 36.890625 C-29 38 -29 38 -31 38 C-31 38.66 -31 39.32 -31 40 C-33.1875 42.1875 -33.1875 42.1875 -36 44 C-38.4375 43.875 -38.4375 43.875 -41 43 C-42.093125 42.649375 -43.18625 42.29875 -44.3125 41.9375 C-45.199375 41.628125 -46.08625 41.31875 -47 41 C-47 40.01 -47 39.02 -47 38 C-44.97826057 36.20559259 -42.97851755 34.60309614 -40.8125 33 C-39.51920741 32.01515233 -38.22757817 31.02811708 -36.9375 30.0390625 C-36.27878906 29.53536133 -35.62007813 29.03166016 -34.94140625 28.51269531 C-31.99383946 26.21602481 -29.15007398 23.80536341 -26.3125 21.375 C-17.71053086 14.03416811 -8.96999145 6.88806751 0 0 Z " fill="#A9D541" transform="translate(428,41)"/>
<path d="M0 0 C2.20165004 1.61454337 2.94723496 2.82364615 3.875 5.375 C3.875 6.365 3.875 7.355 3.875 8.375 C0.875 10.375 0.875 10.375 -2.125 11.375 C-2.23714844 11.9525 -2.34929687 12.53 -2.46484375 13.125 C-3.46634561 16.53840278 -6.01533386 18.21360851 -8.6875 20.375 C-9.26032715 20.84921387 -9.8331543 21.32342773 -10.42333984 21.81201172 C-15.58686055 26.04048287 -20.92235503 30.03649697 -26.28540039 34.00683594 C-32.05415708 38.28332134 -37.62281692 42.75876166 -43.125 47.375 C-43.455 46.715 -43.785 46.055 -44.125 45.375 C-42.86958443 42.86416886 -41.62436512 42.50374554 -39.125 41.375 C-39.455 40.715 -39.785 40.055 -40.125 39.375 C-39.5475 39.1275 -38.97 38.88 -38.375 38.625 C-35.99050111 37.43509525 -35.99050111 37.43509525 -34 35.25 C-33.071875 34.321875 -33.071875 34.321875 -32.125 33.375 C-31.465 33.375 -30.805 33.375 -30.125 33.375 C-30.125 32.715 -30.125 32.055 -30.125 31.375 C-28.805 31.375 -27.485 31.375 -26.125 31.375 C-26.125 30.385 -26.125 29.395 -26.125 28.375 C-26.785 28.375 -27.445 28.375 -28.125 28.375 C-28.455 26.395 -28.785 24.415 -29.125 22.375 C-32.425 25.015 -35.725 27.655 -39.125 30.375 C-39.785 30.045 -40.445 29.715 -41.125 29.375 C-36.81717047 25.62724789 -32.50318261 21.88679498 -28.18212891 18.15429688 C-26.87019735 17.01955237 -25.55981013 15.8830182 -24.25146484 14.74414062 C-22.54737813 13.26134557 -20.83702651 11.78611399 -19.125 10.3125 C-18.135 9.45527344 -17.145 8.59804687 -16.125 7.71484375 C-12.90134565 5.20056126 -9.7101247 3.32857094 -6.125 1.375 C-5.403125 0.92125 -4.68125 0.4675 -3.9375 0 C-2.125 -0.625 -2.125 -0.625 0 0 Z " fill="#26B8BB" transform="translate(156.125,243.625)"/>
<path d="M0 0 C0.495 0.99 0.495 0.99 1 2 C0.18595703 2.68835938 0.18595703 2.68835938 -0.64453125 3.390625 C-1.35996094 4.00421875 -2.07539062 4.6178125 -2.8125 5.25 C-3.52019531 5.85328125 -4.22789063 6.4565625 -4.95703125 7.078125 C-6.9342127 8.93811214 -8.51392197 10.73103544 -10 13 C-10 13.66 -10 14.32 -10 15 C-8.35 15 -6.7 15 -5 15 C-8.49584056 18.61838847 -12.1475181 21.85150268 -16.125 24.9375 C-16.72554199 25.40639648 -17.32608398 25.87529297 -17.94482422 26.35839844 C-24.53081552 31.46658192 -31.25829795 36.38208509 -37.98046875 41.30859375 C-43.15933777 45.10805864 -48.30159712 48.95523508 -53.4375 52.8125 C-54.27345703 53.43938721 -55.10941406 54.06627441 -55.97070312 54.7121582 C-59.60945284 57.44302973 -63.24272986 60.18010056 -66.85546875 62.9453125 C-67.41758057 63.37352295 -67.97969238 63.8017334 -68.55883789 64.24291992 C-70.00299486 65.34444136 -71.44309524 66.4512758 -72.8828125 67.55859375 C-75 69 -75 69 -77 69 C-75.42131841 64.6457279 -72.02577562 62.22094904 -68.5625 59.375 C-67.29685305 58.31668558 -66.03254853 57.25676385 -64.76953125 56.1953125 C-64.13740723 55.66454102 -63.5052832 55.13376953 -62.85400391 54.58691406 C-59.16597915 51.43019021 -55.64439651 48.09147364 -52.109375 44.765625 C-50 43 -50 43 -48 43 C-48 42.34 -48 41.68 -48 41 C-46.3623728 39.54597658 -44.66265804 38.16151322 -42.9375 36.8125 C-39.67697356 34.20987166 -36.54436814 31.6659447 -33.6875 28.625 C-30.53763255 25.35513759 -27.03275351 22.63072539 -23.4375 19.875 C-17.45137668 15.2856118 -11.90058235 10.35639579 -6.44311523 5.15185547 C-2.17365554 1.08682777 -2.17365554 1.08682777 0 0 Z " fill="#20B0CE" transform="translate(77,306)"/>
<path d="M0 0 C1.95881942 3.27920881 2.05559492 3.76173604 1.125 7.75 C0.75375 8.8225 0.3825 9.895 0 11 C0.99 11.33 1.98 11.66 3 12 C3 12.99 3 13.98 3 15 C1.35 15.66 -0.3 16.32 -2 17 C-2 18.32 -2 19.64 -2 21 C-4.21029022 23.06254354 -6.3369038 24.83432941 -8.75 26.625 C-9.70132813 27.35976562 -9.70132813 27.35976562 -10.671875 28.109375 C-13.68695197 30.40837119 -16.56398331 32.37038399 -20 34 C-20 32 -20 32 -18 30 C-15.875 29.375 -15.875 29.375 -14 29 C-15.28432339 25.50294871 -15.28432339 25.50294871 -17 22 C-20.76624671 20.74458443 -22.37188934 21.62938042 -26 23 C-22.22338949 19.11650429 -18.2570347 15.56262918 -14.125 12.0625 C-13.24521484 11.31323242 -13.24521484 11.31323242 -12.34765625 10.54882812 C-11.16894029 9.54497662 -9.98958463 8.54187575 -8.80957031 7.53955078 C-5.8656931 5.03495152 -2.9328645 2.51747785 0 0 Z " fill="#3FBB9C" transform="translate(174,223)"/>
<path d="M0 0 C0.66 0.33 1.32 0.66 2 1 C2.51953125 3.109375 2.51953125 3.109375 2.8125 5.75 C2.92207031 6.61109375 3.03164063 7.4721875 3.14453125 8.359375 C2.89571594 12.90529798 0.79199375 15.27390212 -2.48828125 18.28125 C-3.42027344 19.0134375 -4.35226563 19.745625 -5.3125 20.5 C-6.28445312 21.27214844 -7.25640625 22.04429687 -8.2578125 22.83984375 C-9.61519531 23.90912109 -9.61519531 23.90912109 -11 25 C-12.23358995 26.01548374 -13.46388701 27.03501636 -14.6875 28.0625 C-15.450625 28.701875 -16.21375 29.34125 -17 30 C-17.33 29.34 -17.66 28.68 -18 28 C-17.34 28 -16.68 28 -16 28 C-16 25.36 -16 22.72 -16 20 C-15.34 20 -14.68 20 -14 20 C-14.33 19.01 -14.66 18.02 -15 17 C-16.98 17.33 -18.96 17.66 -21 18 C-20.16846314 13.17477101 -17.03965482 11.25281266 -13.3125 8.4375 C-12.69955078 7.95603516 -12.08660156 7.47457031 -11.45507812 6.97851562 C-7.82758058 4.1819189 -4.26574149 1.75501224 0 0 Z " fill="#7BBD67" transform="translate(256,158)"/>
<path d="M0 0 C0.99 0.33 1.98 0.66 3 1 C-2.94855523 6.48258507 -8.89564007 11.95721483 -15.0078125 17.2578125 C-17.36020635 19.31500399 -19.68034966 21.40596915 -22 23.5 C-25.60859396 26.75653601 -29.24586949 29.97498042 -32.9140625 33.1640625 C-36.28035988 36.12690851 -39.58723222 39.15552169 -42.8984375 42.1796875 C-45 44 -45 44 -47 45 C-46.690625 44.401875 -46.38125 43.80375 -46.0625 43.1875 C-44.89790296 40.91043228 -44.89790296 40.91043228 -44 38 C-45.32 37.34 -46.64 36.68 -48 36 C-47.030625 35.27296875 -46.06125 34.5459375 -45.0625 33.796875 C-44.42272217 33.31702148 -43.78294434 32.83716797 -43.1237793 32.34277344 C-41.69042619 31.2677998 -40.25699331 30.1929325 -38.82348633 29.11816406 C-35.13439175 26.35204631 -31.44643844 23.58444351 -27.76171875 20.8125 C-20.99244818 15.72287129 -14.2115267 10.6589861 -7.33203125 5.71875 C-4.89833112 3.97450949 -4.89833112 3.97450949 -2.38671875 1.71875 C-1.59910156 1.1515625 -0.81148438 0.584375 0 0 Z " fill="#B1CF48" transform="translate(430,20)"/>
<path d="M0 0 C2.475 0.495 2.475 0.495 5 1 C5.33 1.99 5.66 2.98 6 4 C5.67 4.66 5.34 5.32 5 6 C4.01 6.33 3.02 6.66 2 7 C1.67 7.66 1.34 8.32 1 9 C0.01 9.33 -0.98 9.66 -2 10 C-2.99 11.485 -2.99 11.485 -4 13 C-4.66 13 -5.32 13 -6 13 C-6 13.66 -6 14.32 -6 15 C-6.639375 15.226875 -7.27875 15.45375 -7.9375 15.6875 C-10.27193661 16.85250896 -10.27193661 16.85250896 -10.75 19.625 C-10.8325 20.40875 -10.915 21.1925 -11 22 C-12.65 21.67 -14.3 21.34 -16 21 C-16.33 22.32 -16.66 23.64 -17 25 C-22.75 24.25 -22.75 24.25 -25 22 C-23.2242739 15.04507279 -18.80761308 11.91068846 -13.09765625 7.82421875 C-9.1395993 5.49330753 -6.54421911 4.91261117 -2 5 C-2 4.01 -2 3.02 -2 2 C-1.34 2 -0.68 2 0 2 C0 1.34 0 0.68 0 0 Z " fill="#9BCF36" transform="translate(343,88)"/>
<path d="M0 0 C1.97563558 1.68294883 2.80257148 3.00394657 3.6875 5.4375 C3.6875 6.4275 3.6875 7.4175 3.6875 8.4375 C0.6875 10.4375 0.6875 10.4375 -2.3125 11.4375 C-2.66680516 12.76541443 -2.99812066 14.09957081 -3.3125 15.4375 C-4.61938477 16.90136719 -4.61938477 16.90136719 -6.25390625 18.234375 C-6.83720703 18.71777344 -7.42050781 19.20117188 -8.02148438 19.69921875 C-8.63314453 20.19035156 -9.24480469 20.68148438 -9.875 21.1875 C-10.49052734 21.69410156 -11.10605469 22.20070313 -11.74023438 22.72265625 C-13.25744438 23.96935595 -14.78408426 25.2045638 -16.3125 26.4375 C-16.9725 26.1075 -17.6325 25.7775 -18.3125 25.4375 C-18.3125 23.10416667 -18.3125 20.77083333 -18.3125 18.4375 C-16.641875 17.8496875 -16.641875 17.8496875 -14.9375 17.25 C-12.03032176 16.02499949 -11.46659963 15.7316902 -9.9375 12.8125 C-9.73125 12.02875 -9.525 11.245 -9.3125 10.4375 C-8.9825 10.1075 -8.6525 9.7775 -8.3125 9.4375 C-9.055 9.7675 -9.7975 10.0975 -10.5625 10.4375 C-13.3125 11.4375 -13.3125 11.4375 -17.3125 11.4375 C-15.32693492 6.07647428 -10.64994392 2.91185446 -5.6875 0.5 C-2.3125 -0.5625 -2.3125 -0.5625 0 0 Z " fill="#32B9B6" transform="translate(156.3125,243.5625)"/>
<path d="M0 0 C-10.88620917 8.33807178 -21.78224709 16.65277825 -32.875 24.71484375 C-35.550175 26.67106547 -38.18641231 28.66635037 -40.8125 30.6875 C-44 33 -44 33 -46 33 C-44.42131841 28.6457279 -41.02577562 26.22094904 -37.5625 23.375 C-36.29685305 22.31668558 -35.03254853 21.25676385 -33.76953125 20.1953125 C-33.13740723 19.66454102 -32.5052832 19.13376953 -31.85400391 18.58691406 C-28.16597915 15.43019021 -24.64439651 12.09147364 -21.109375 8.765625 C-19 7 -19 7 -17 7 C-17 6.34 -17 5.68 -17 5 C-11.52380952 0 -11.52380952 0 -9 0 C-8.505 1.485 -8.505 1.485 -8 3 C-7.67 2.34 -7.34 1.68 -7 1 C-4.01793274 -0.8886426 -3.49368922 -1.16456307 0 0 Z " fill="#2AACC7" transform="translate(46,342)"/>
<path d="M0 0 C0.84820312 0.42667969 1.69640625 0.85335937 2.5703125 1.29296875 C2.5703125 2.28296875 2.5703125 3.27296875 2.5703125 4.29296875 C3.8903125 3.96296875 5.2103125 3.63296875 6.5703125 3.29296875 C4.95436418 5.33416663 3.2846743 7.33369812 1.5703125 9.29296875 C0.9103125 9.29296875 0.2503125 9.29296875 -0.4296875 9.29296875 C-0.4296875 9.95296875 -0.4296875 10.61296875 -0.4296875 11.29296875 C-2.6171875 13.48046875 -2.6171875 13.48046875 -5.4296875 15.29296875 C-7.8671875 15.16796875 -7.8671875 15.16796875 -10.4296875 14.29296875 C-12.069375 13.76703125 -12.069375 13.76703125 -13.7421875 13.23046875 C-14.6290625 12.92109375 -15.5159375 12.61171875 -16.4296875 12.29296875 C-16.4296875 11.30296875 -16.4296875 10.31296875 -16.4296875 9.29296875 C-14.4298372 7.35542833 -12.49101009 5.67962164 -10.3046875 3.98046875 C-9.73492187 3.50029297 -9.16515625 3.02011719 -8.578125 2.52539062 C-5.3629672 0.00806821 -4.08554874 -0.84223727 0 0 Z " fill="#50C198" transform="translate(397.4296875,69.70703125)"/>
<path d="M0 0 C2.9375 0.8125 2.9375 0.8125 4.9375 3.8125 C6.2575 2.4925 7.5775 1.1725 8.9375 -0.1875 C9.9275 0.1425 10.9175 0.4725 11.9375 0.8125 C9.58409528 3.00363186 7.20166205 5.16046452 4.8125 7.3125 C4.14734375 7.93253906 3.4821875 8.55257812 2.796875 9.19140625 C-2.28089684 13.72157525 -2.28089684 13.72157525 -6.5546875 14.21875 C-7.38226563 14.0846875 -8.20984375 13.950625 -9.0625 13.8125 C-8.7325 12.8225 -8.4025 11.8325 -8.0625 10.8125 C-9.0525 10.8125 -10.0425 10.8125 -11.0625 10.8125 C-11.3925 10.1525 -11.7225 9.4925 -12.0625 8.8125 C-12.7225 8.8125 -13.3825 8.8125 -14.0625 8.8125 C-13.4375 6.875 -13.4375 6.875 -12.0625 4.8125 C-8.9375 4.0625 -8.9375 4.0625 -6.0625 3.8125 C-6.0625 3.1525 -6.0625 2.4925 -6.0625 1.8125 C-3.0625 -0.1875 -3.0625 -0.1875 0 0 Z " fill="#88C252" transform="translate(289.0625,135.1875)"/>
<path d="M0 0 C0.66 0.33 1.32 0.66 2 1 C2.625 3.0625 2.625 3.0625 3 5 C1.02 5.99 1.02 5.99 -1 7 C-0.67 7.99 -0.34 8.98 0 10 C-0.66 10.66 -1.32 11.32 -2 12 C-0.68 13.32 0.64 14.64 2 16 C1.030625 16.61875 0.06125 17.2375 -0.9375 17.875 C-4.02835362 19.65678846 -4.02835362 19.65678846 -5 22 C-6.32 22 -7.64 22 -9 22 C-8.95875 21.05125 -8.9175 20.1025 -8.875 19.125 C-8.65026182 15.89755144 -8.65026182 15.89755144 -11 14 C-11.99 13.34 -12.98 12.68 -14 12 C-9.38465781 7.93521893 -4.74414188 3.91391705 0 0 Z " fill="#55B97D" transform="translate(209,194)"/>
<path d="M0 0 C0.33 0.99 0.66 1.98 1 3 C0.69530792 3.55347107 0.39061584 4.10694214 0.07669067 4.67718506 C-1.5072432 8.0943088 -1.26149213 11.47171084 -1.22705078 15.16503906 C-1.22734283 15.9849231 -1.22763489 16.80480713 -1.22793579 17.64953613 C-1.22654432 20.35500737 -1.2109917 23.06020197 -1.1953125 25.765625 C-1.19158172 27.64320729 -1.18873506 29.52079153 -1.18673706 31.39837646 C-1.17910571 36.33692818 -1.15946145 41.27536201 -1.1373291 46.21386719 C-1.11685998 51.25454107 -1.10773306 56.29523402 -1.09765625 61.3359375 C-1.07621511 71.22401843 -1.04103698 81.11198096 -1 91 C9.56 91 20.12 91 31 91 C31.33 91.66 31.66 92.32 32 93 C24.83341042 93.86042194 17.77731259 94.15430865 10.5625 94.125 C9.58345703 94.12886719 8.60441406 94.13273437 7.59570312 94.13671875 C6.65791016 94.13542969 5.72011719 94.13414062 4.75390625 94.1328125 C3.91158447 94.13168457 3.0692627 94.13055664 2.20141602 94.12939453 C0 94 0 94 -3 93 C-3.0694002 81.16965269 -3.1227604 69.33935351 -3.15543652 57.50884438 C-3.17111656 52.01591445 -3.19239742 46.52312341 -3.22631836 41.03027344 C-3.2588285 35.73294071 -3.27683538 30.43574187 -3.28463173 25.13831711 C-3.29019028 23.11361965 -3.30104422 21.08892981 -3.31719017 19.06428909 C-3.3388536 16.23621831 -3.3419716 13.40870632 -3.34057617 10.58056641 C-3.351362 9.73683975 -3.36214783 8.8931131 -3.3732605 8.02381897 C-3.36076355 5.69522095 -3.36076355 5.69522095 -3 2 C-2.01 1.34 -1.02 0.68 0 0 Z " fill="#404040" transform="translate(217,215)"/>
<path d="M0 0 C5.46875 4.4921875 5.46875 4.4921875 7 6 C7 8 7 8 4.5625 10.5625 C0.75077047 13.6318024 -3.19551016 14.12229611 -8 14 C-10.2109375 13.6953125 -10.2109375 13.6953125 -12 13 C-12.33 12.01 -12.66 11.02 -13 10 C-8.71 6.7 -4.42 3.4 0 0 Z " fill="#ABD922" transform="translate(428,41)"/>
<path d="M0 0 C0.66 1.32 1.32 2.64 2 4 C0.02 4.66 -1.96 5.32 -4 6 C-4 7.65 -4 9.3 -4 11 C-3.34 11 -2.68 11 -2 11 C-1.67 12.98 -1.34 14.96 -1 17 C-2.45365269 18.17249353 -3.91307419 19.33783816 -5.375 20.5 C-6.18710938 21.1496875 -6.99921875 21.799375 -7.8359375 22.46875 C-10 24 -10 24 -12 24 C-12 22.35 -12 20.7 -12 19 C-10.35 18.67 -8.7 18.34 -7 18 C-7.99 17.67 -8.98 17.34 -10 17 C-10 16.34 -10 15.68 -10 15 C-12.31 15.33 -14.62 15.66 -17 16 C-12.48746518 11.2367688 -12.48746518 11.2367688 -9.8125 9.9375 C-7.84991242 9.15216814 -7.84991242 9.15216814 -7.125 7.1875 C-5.44194242 3.91488804 -2.88548015 2.25820186 0 0 Z " fill="#17B5CD" transform="translate(112,275)"/>
<path d="M0 0 C1.32 0.66 2.64 1.32 4 2 C2.35 3.65 0.7 5.3 -1 7 C-1.66 6.67 -2.32 6.34 -3 6 C-3.99 6.66 -4.98 7.32 -6 8 C-4.35 8.99 -2.7 9.98 -1 11 C-0.67 10.34 -0.34 9.68 0 9 C0 9.66 0 10.32 0 11 C1.32 11.33 2.64 11.66 4 12 C3.53730015 16.29227942 1.09840542 18.02922065 -2.0625 20.75 C-2.98160156 21.54921875 -3.90070313 22.3484375 -4.84765625 23.171875 C-5.55792969 23.77515625 -6.26820313 24.3784375 -7 25 C-7.66 24.34 -8.32 23.68 -9 23 C-8.34 23 -7.68 23 -7 23 C-7 20.36 -7 17.72 -7 15 C-6.34 15 -5.68 15 -5 15 C-5.33 14.01 -5.66 13.02 -6 12 C-7.98 12.33 -9.96 12.66 -12 13 C-11.71248893 9.78577367 -10.90082842 8.90655283 -8.49609375 6.640625 C-7.48675781 5.85171875 -6.47742188 5.0628125 -5.4375 4.25 C-4.42558594 3.45078125 -3.41367188 2.6515625 -2.37109375 1.828125 C-1.58863281 1.22484375 -0.80617187 0.6215625 0 0 Z " fill="#75BA6C" transform="translate(247,163)"/>
<path d="M0 0 C0.99 0.495 0.99 0.495 2 1 C2.33 20.8 2.66 40.6 3 61 C4.485 60.505 4.485 60.505 6 60 C6 60.66 6 61.32 6 62 C2.53846154 65 2.53846154 65 0 65 C0 43.55 0 22.1 0 0 Z " fill="#484546" transform="translate(214,115)"/>
<path d="M0 0 C0 0.66 0 1.32 0 2 C1.98 2.66 3.96 3.32 6 4 C6 4.66 6 5.32 6 6 C5.34 6 4.68 6 4 6 C3.9071875 6.928125 3.9071875 6.928125 3.8125 7.875 C3 10 3 10 0.5625 11.125 C-0.283125 11.41375 -1.12875 11.7025 -2 12 C-2.66 12.66 -3.32 13.32 -4 14 C-4.61875 13.195625 -5.2375 12.39125 -5.875 11.5625 C-7.74164041 8.96125481 -7.74164041 8.96125481 -10 8 C-12.01927511 8.60578253 -14.02253397 9.26919734 -16 10 C-5.5 -0.80882353 -5.5 -0.80882353 0 0 Z " fill="#41B9A8" transform="translate(164,236)"/>
<path d="M0 0 C0.33 0.66 0.66 1.32 1 2 C-1.67743264 7.93691586 -5.53622937 12.39818472 -11 16 C-13.75390625 16.6953125 -13.75390625 16.6953125 -16 17 C-17 15 -17 15 -16.0625 11.875 C-15.711875 10.92625 -15.36125 9.9775 -15 9 C-13.35 8.67 -11.7 8.34 -10 8 C-9.9175 7.236875 -9.835 6.47375 -9.75 5.6875 C-9 3 -9 3 -7.25 1.1875 C-4.62847443 -0.19608294 -2.92325122 -0.24360427 0 0 Z " fill="#A7CE38" transform="translate(386,57)"/>
<path d="M0 0 C0.99 0.33 1.98 0.66 3 1 C-3.59826383 7.08139983 -10.21515503 13.12634289 -17 19 C-18.50064092 20.31176715 -20.00064969 21.62425786 -21.5 22.9375 C-22.66666667 23.95833333 -23.83333333 24.97916667 -25 26 C-26.32 24.68 -27.64 23.36 -29 22 C-21.89016541 16.48394391 -14.75378079 11.03091002 -7.4375 5.7890625 C-4.91184953 3.9877321 -4.91184953 3.9877321 -2.375 1.7109375 C-1.59125 1.14632813 -0.8075 0.58171875 0 0 Z " fill="#AFC94E" transform="translate(430,20)"/>
<path d="M0 0 C0.66 0.33 1.32 0.66 2 1 C2 6.94 2 12.88 2 19 C1.67 19 1.34 19 1 19 C1 15.7 1 12.4 1 9 C-4.73866286 9.24126997 -4.73866286 9.24126997 -9.5 12.0625 C-9.995 12.701875 -10.49 13.34125 -11 14 C-10.67 14.99 -10.34 15.98 -10 17 C-17.75 18.125 -17.75 18.125 -20 17 C-17.60556157 14.91505907 -15.20919922 12.83234146 -12.8125 10.75 C-12.13896484 10.16347656 -11.46542969 9.57695312 -10.77148438 8.97265625 C-7.23790842 5.90447811 -3.68315133 2.88930707 0 0 Z " fill="#515150" transform="translate(190,237)"/>
<path d="M0 0 C0 0.66 0 1.32 0 2 C1.32 2.33 2.64 2.66 4 3 C4 3.33 4 3.66 4 4 C2.02 4 0.04 4 -2 4 C-2 5.98 -2 7.96 -2 10 C-5.82989106 11.80230168 -8.78121808 12.19622241 -13 12 C-13.33 10.68 -13.66 9.36 -14 8 C-13.071875 7.236875 -12.14375 6.47375 -11.1875 5.6875 C-9.4343248 4.24563628 -7.92313619 2.91083799 -6.4375 1.1875 C-4.34409081 -0.54183802 -2.62196869 -0.21259206 0 0 Z " fill="#13BED6" transform="translate(102,290)"/>
<path d="M0 0 C0.66 0 1.32 0 2 0 C2 0.66 2 1.32 2 2 C2.66 2.33 3.32 2.66 4 3 C3.67 4.32 3.34 5.64 3 7 C3.99 7.33 4.98 7.66 6 8 C5.67 8.66 5.34 9.32 5 10 C5.66 10.33 6.32 10.66 7 11 C7.33 9.68 7.66 8.36 8 7 C8.99 7.66 9.98 8.32 11 9 C7.37 11.97 3.74 14.94 0 18 C-1.23367942 15.53264116 -1 13.73190399 -1 11 C-1.33 10.34 -1.66 9.68 -2 9 C-2.33 8.01 -2.66 7.02 -3 6 C-4.32 6.33 -5.64 6.66 -7 7 C-4.66666667 4.66666667 -2.33333333 2.33333333 0 0 Z " fill="#77B55B" transform="translate(259,153)"/>
<path d="M0 0 C0 0.99 0 1.98 0 3 C-0.825 3.639375 -1.65 4.27875 -2.5 4.9375 C-3.325 5.618125 -4.15 6.29875 -5 7 C-5 8.32 -5 9.64 -5 11 C-0.545 10.505 -0.545 10.505 4 10 C0.83525695 13.25516428 -2.32752791 16.32008793 -6 19 C-6.66 19 -7.32 19 -8 19 C-8.33 18.01 -8.66 17.02 -9 16 C-8.34 15.67 -7.68 15.34 -7 15 C-7.33 14.01 -7.66 13.02 -8 12 C-9.32 12 -10.64 12 -12 12 C-12 12.99 -12 13.98 -12 15 C-13.32 14.67 -14.64 14.34 -16 14 C-14.2725597 12.4147483 -12.54312043 10.83177374 -10.8125 9.25 C-9.36810547 7.92742187 -9.36810547 7.92742187 -7.89453125 6.578125 C-5.32582261 4.29020637 -2.70839628 2.11918393 0 0 Z " fill="#24ACC5" transform="translate(94,291)"/>
<path d="M0 0 C2 1.8125 2 1.8125 4 4 C4 4.99 4 5.98 4 7 C5.32 6.34 6.64 5.68 8 5 C6.89184175 8.21365891 6.01470446 8.9914224 3 10.75 C0 12 0 12 -2 12 C-2 11.01 -2 10.02 -2 9 C-3.32 8.67 -4.64 8.34 -6 8 C-6 5 -6 5 -4.6875 3.61328125 C-3.125 2.40885417 -1.5625 1.20442708 0 0 Z " fill="#78C46F" transform="translate(402,62)"/>
<path d="M0 0 C0.33 0.66 0.66 1.32 1 2 C0.45730469 2.45890625 -0.08539063 2.9178125 -0.64453125 3.390625 C-1.35996094 4.00421875 -2.07539062 4.6178125 -2.8125 5.25 C-3.52019531 5.85328125 -4.22789063 6.4565625 -4.95703125 7.078125 C-6.9342127 8.93811214 -8.51392197 10.73103544 -10 13 C-10 13.66 -10 14.32 -10 15 C-8.35 15 -6.7 15 -5 15 C-9.625 19.875 -9.625 19.875 -13 21 C-13.33 20.01 -13.66 19.02 -14 18 C-15.49985609 16.33289654 -15.49985609 16.33289654 -17 15 C-14.5451846 12.68374133 -12.08556574 10.37264795 -9.625 8.0625 C-8.92632812 7.40314453 -8.22765625 6.74378906 -7.5078125 6.06445312 C-6.8375 5.43603516 -6.1671875 4.80761719 -5.4765625 4.16015625 C-4.85861816 3.57886963 -4.24067383 2.99758301 -3.60400391 2.39868164 C-2 1 -2 1 0 0 Z " fill="#23ACC4" transform="translate(77,306)"/>
<path d="M0 0 C0.66 0.33 1.32 0.66 2 1 C1.01 1.85722656 0.02 2.71445313 -1 3.59765625 C-11.02054406 12.27523715 -11.02054406 12.27523715 -21 21 C-21.625 19.125 -21.625 19.125 -22 17 C-21.34 16.34 -20.68 15.68 -20 15 C-19.01 15 -18.02 15 -17 15 C-17.33 14.01 -17.66 13.02 -18 12 C-17.01 12 -16.02 12 -15 12 C-14.34 11.01 -13.68 10.02 -13 9 C-12.01 9 -11.02 9 -10 9 C-9.67 8.01 -9.34 7.02 -9 6 C-8.01 6 -7.02 6 -6 6 C-6 5.34 -6 4.68 -6 4 C-4.03852126 2.61061923 -2.03833424 1.2739589 0 0 Z " fill="#A0C250" transform="translate(354,88)"/>
<path d="M0 0 C0.7734375 0.61875 0.7734375 0.61875 1.5625 1.25 C1.2325 3.56 0.9025 5.87 0.5625 8.25 C-2.81455625 7.71274105 -6.134186 7.13935377 -9.4375 6.25 C-9.4375 5.26 -9.4375 4.27 -9.4375 3.25 C-3.0375 -0.93461538 -3.0375 -0.93461538 0 0 Z " fill="#37C6B8" transform="translate(390.4375,75.75)"/>
<path d="M0 0 C1.32 0.33 2.64 0.66 4 1 C4 4 4 4 3 6 C2.34 6 1.68 6 1 6 C1 6.99 1 7.98 1 9 C0.360625 9.12375 -0.27875 9.2475 -0.9375 9.375 C-1.618125 9.58125 -2.29875 9.7875 -3 10 C-3.33 10.66 -3.66 11.32 -4 12 C-4.99 11.67 -5.98 11.34 -7 11 C-6.67 10.34 -6.34 9.68 -6 9 C-6.66 8.67 -7.32 8.34 -8 8 C-7.67 7.01 -7.34 6.02 -7 5 C-6.01 5 -5.02 5 -4 5 C-1.79857668 2.5609294 -1.79857668 2.5609294 0 0 Z " fill="#79C053" transform="translate(270,152)"/>
<path d="M0 0 C0.33 0 0.66 0 1 0 C1.33 4.29 1.66 8.58 2 13 C12.56 13 23.12 13 34 13 C34.495 13.99 34.495 13.99 35 15 C27.83341042 15.86042194 20.77731259 16.15430865 13.5625 16.125 C12.58345703 16.12886719 11.60441406 16.13273437 10.59570312 16.13671875 C9.65791016 16.13542969 8.72011719 16.13414062 7.75390625 16.1328125 C6.91158447 16.13168457 6.0692627 16.13055664 5.20141602 16.12939453 C3 16 3 16 0 15 C0 10.05 0 5.1 0 0 Z " fill="#393939" transform="translate(214,293)"/>
<path d="M0 0 C0.66 0.33 1.32 0.66 2 1 C-1.35062559 6.51231953 -4.30349267 9.14060157 -10.109375 11.95703125 C-12.16537934 12.85813642 -12.16537934 12.85813642 -13 15 C-12.34 15.33 -11.68 15.66 -11 16 C-12.75 17.125 -12.75 17.125 -15 18 C-17.140625 17.0546875 -17.140625 17.0546875 -19 16 C-16.77172107 14.0822931 -14.54241095 12.16580761 -12.3125 10.25 C-11.68666016 9.71117187 -11.06082031 9.17234375 -10.41601562 8.6171875 C-6.9934917 5.67847585 -3.5444177 2.79216079 0 0 Z " fill="#484A47" transform="translate(248,189)"/>
<path d="M0 0 C0.33 0.66 0.66 1.32 1 2 C-0.32 2.99 -1.64 3.98 -3 5 C-2.34 5.33 -1.68 5.66 -1 6 C-1 6.99 -1 7.98 -1 9 C-0.401875 8.690625 0.19625 8.38125 0.8125 8.0625 C3 7 3 7 6 6 C5.02016244 8.44959389 4.38443195 9.75652643 2.125 11.1875 C0.09581586 11.96336453 -1.8771208 12.54509731 -4 13 C-4.33 12.01 -4.66 11.02 -5 10 C-5.99 9.34 -6.98 8.68 -8 8 C-7.04578192 6.85073734 -6.08647955 5.70569459 -5.125 4.5625 C-4.59132813 3.92441406 -4.05765625 3.28632812 -3.5078125 2.62890625 C-2 1 -2 1 0 0 Z " fill="#8CC94B" transform="translate(410,56)"/>
<path d="M0 0 C1.65 0 3.3 0 5 0 C5.33 0.66 5.66 1.32 6 2 C3.28716064 8.01542641 -0.62516712 12.1724675 -6 16 C-6.66 16 -7.32 16 -8 16 C-8.33 14.68 -8.66 13.36 -9 12 C-8.360625 11.87625 -7.72125 11.7525 -7.0625 11.625 C-6.381875 11.41875 -5.70125 11.2125 -5 11 C-4.67 10.34 -4.34 9.68 -4 9 C-3.01 8.67 -2.02 8.34 -1 8 C0.07009208 5.17884816 0 3.09455459 0 0 Z " fill="#ADD03C" transform="translate(381,57)"/>
<path d="M0 0 C3.16115776 1.36983503 3.9927092 1.9890638 6 5 C8.90613434 5.51146198 8.90613434 5.51146198 12.3203125 5.51171875 C14.20556641 5.56489258 14.20556641 5.56489258 16.12890625 5.61914062 C18.10697266 5.65297852 18.10697266 5.65297852 20.125 5.6875 C21.46487759 5.72066529 22.80472311 5.75515422 24.14453125 5.79101562 C27.4296033 5.87373327 30.71440032 5.94280693 34 6 C34 6.33 34 6.66 34 7 C30.29176238 7.16884201 26.58339644 7.33468594 22.875 7.5 C21.82828125 7.54769531 20.7815625 7.59539062 19.703125 7.64453125 C17.68238706 7.73405761 15.66138147 7.81777662 13.64013672 7.89501953 C11.57154581 7.97727347 9.50410613 8.08857266 7.4375 8.2109375 C5 8 5 8 3.3203125 6.7578125 C0 2.22222222 0 2.22222222 0 0 Z " fill="#3E3E3E" transform="translate(334,301)"/>
<path d="M0 0 C0.66 1.32 1.32 2.64 2 4 C0.02 4.66 -1.96 5.32 -4 6 C-4 7.65 -4 9.3 -4 11 C-5.60875 11.4021875 -5.60875 11.4021875 -7.25 11.8125 C-10.56508928 12.86227827 -12.43877646 13.74612328 -15 16 C-15.66 15.67 -16.32 15.34 -17 15 C-15.8803014 13.99406757 -14.7540588 12.9954151 -13.625 12 C-12.99851562 11.443125 -12.37203125 10.88625 -11.7265625 10.3125 C-10 9 -10 9 -8 9 C-7.79375 8.443125 -7.5875 7.88625 -7.375 7.3125 C-5.44999226 4.07498698 -2.96149098 2.31768859 0 0 Z " fill="#1EACB7" transform="translate(112,275)"/>
<path d="M0 0 C1.98 0.66 3.96 1.32 6 2 C6 2.99 6 3.98 6 5 C7.32 4.67 8.64 4.34 10 4 C5.375 9.875 5.375 9.875 2 11 C2.33 9.35 2.66 7.7 3 6 C0.64561267 4.57055055 -0.48032433 3.91338739 -3.25 4.375 C-4.11625 4.684375 -4.11625 4.684375 -5 5 C-3.35 3.35 -1.7 1.7 0 0 Z " fill="#6BBE88" transform="translate(394,69)"/>
<path d="M0 0 C-3.96 2.97 -7.92 5.94 -12 9 C-12.66 8.01 -13.32 7.02 -14 6 C-14.99 6.33 -15.98 6.66 -17 7 C-17 6.34 -17 5.68 -17 5 C-11.52380952 0 -11.52380952 0 -9 0 C-8.67 0.99 -8.34 1.98 -8 3 C-7.67 2.34 -7.34 1.68 -7 1 C-4.01793274 -0.8886426 -3.49368922 -1.16456307 0 0 Z " fill="#35ADC5" transform="translate(46,342)"/>
<path d="M0 0 C1 2 1 2 0.6171875 3.91015625 C-0.12690183 6.06801531 -0.85000413 8.02547879 -2 10 C-4.6875 11 -4.6875 11 -7 11 C-8.4783226 8.04335481 -8.06032783 5.25770263 -8 2 C-7.67 2.66 -7.34 3.32 -7 4 C-4.69 2.68 -2.38 1.36 0 0 Z " fill="#A2CE2F" transform="translate(358,78)"/>
<path d="M0 0 C0.66 0 1.32 0 2 0 C2 0.66 2 1.32 2 2 C1.34 2 0.68 2 0 2 C-0.268125 2.598125 -0.53625 3.19625 -0.8125 3.8125 C-2.02540244 6.04679397 -3.14495964 7.28237004 -5 9 C-9.19794848 12.95806571 -12.64019923 17.297227 -16.1328125 21.890625 C-18 24 -18 24 -21 25 C-19.38389326 21.07650386 -16.68681476 18.28592863 -13.8125 15.25 C-12.82089542 14.18686824 -11.83001107 13.12306426 -10.83984375 12.05859375 C-10.35628418 11.54022949 -9.87272461 11.02186523 -9.37451172 10.48779297 C-6.93873813 7.85127356 -4.59085437 5.13967144 -2.2421875 2.42578125 C-1.51888012 1.59556994 -0.7785963 0.7785963 0 0 Z " fill="#494949" transform="translate(280,180)"/>
<path d="M0 0 C0.25 2.3125 0.25 2.3125 0 5 C-2 6.6875 -2 6.6875 -4 8 C-4 8.66 -4 9.32 -4 10 C-5.65 10.33 -7.3 10.66 -9 11 C-9.33 10.01 -9.66 9.02 -10 8 C-8.890625 6.2109375 -8.890625 6.2109375 -7.25 4.375 C-6.71890625 3.76398438 -6.1878125 3.15296875 -5.640625 2.5234375 C-3.92587858 0.93117296 -2.46255458 0 0 0 Z " fill="#0EB7DF" transform="translate(76,311)"/>
<path d="M0 0 C0 3.10551666 -0.5393715 4.35261084 -2 7 C-1.34 7 -0.68 7 0 7 C-1.5830577 11.2742558 -4.50568404 13.26531794 -8 16 C-7.690625 15.401875 -7.38125 14.80375 -7.0625 14.1875 C-5.89790296 11.91043228 -5.89790296 11.91043228 -5 9 C-6.32 8.34 -7.64 7.68 -9 7 C-6.03 4.69 -3.06 2.38 0 0 Z " fill="#ACCE53" transform="translate(391,49)"/>
<path d="M0 0 C1.1725131 0.95117134 2.33787015 1.91117009 3.5 2.875 C4.47453125 3.67550781 4.47453125 3.67550781 5.46875 4.4921875 C6.22671875 5.23855469 6.22671875 5.23855469 7 6 C7 6.66 7 7.32 7 8 C1.52380952 13 1.52380952 13 -1 13 C-0.44271087 9.65626525 0.35173889 6.96687001 2 4 C0.35 3.67 -1.3 3.34 -3 3 C-2.01 2.01 -1.02 1.02 0 0 Z " fill="#B1D24C" transform="translate(428,41)"/>
<path d="M0 0 C0.66 0 1.32 0 2 0 C2 0.66 2 1.32 2 2 C2.66 2 3.32 2 4 2 C5.02611949 3.65071396 6.02308143 5.31970006 7 7 C7.45117188 7.4434375 7.90234375 7.886875 8.3671875 8.34375 C10.44009305 10.44641018 12.01433507 12.75667548 13.6875 15.1875 C14.31011719 16.08855469 14.93273437 16.98960937 15.57421875 17.91796875 C16.04472656 18.60503906 16.51523437 19.29210937 17 20 C16.67 20.66 16.34 21.32 16 22 C13.89457973 19.41768612 11.79088731 16.83396996 9.6875 14.25 C8.79514648 13.15558594 8.79514648 13.15558594 7.88476562 12.0390625 C7.01948242 10.97558594 7.01948242 10.97558594 6.13671875 9.890625 C5.34334106 8.91657715 5.34334106 8.91657715 4.53393555 7.92285156 C3.77463745 6.97104004 3.77463745 6.97104004 3 6 C2.44030518 5.30100586 1.88061035 4.60201172 1.30395508 3.88183594 C0 2 0 2 0 0 Z " fill="#444545" transform="translate(291,245)"/>
<path d="M0 0 C1.32 0.33 2.64 0.66 4 1 C-1.25442525 5.76636599 -6.50216911 10.51492743 -12 15 C-12.66 14.67 -13.32 14.34 -14 14 C-12.75 11.5 -12.75 11.5 -11 9 C-9.68 9 -8.36 9 -7 9 C-7 8.34 -7 7.68 -7 7 C-5.34614767 5.65080468 -3.678298 4.31866272 -2 3 C-1.34 2.01 -0.68 1.02 0 0 Z " fill="#454647" transform="translate(173,211)"/>
<path d="M0 0 C1.32 0.33 2.64 0.66 4 1 C1.75340093 2.79607786 -0.49703789 4.58693483 -2.75 6.375 C-3.70132813 7.13683594 -3.70132813 7.13683594 -4.671875 7.9140625 C-5.290625 8.40390625 -5.909375 8.89375 -6.546875 9.3984375 C-7.11245117 9.84880371 -7.67802734 10.29916992 -8.26074219 10.76318359 C-10.09637036 12.06853064 -11.9636312 13.04423303 -14 14 C-14 12 -14 12 -12 10 C-9.875 9.375 -9.875 9.375 -8 9 C-7.67 7.35 -7.34 5.7 -7 4 C-5.5459375 3.566875 -5.5459375 3.566875 -4.0625 3.125 C-0.89335797 2.35785318 -0.89335797 2.35785318 0 0 Z " fill="#4AAFA3" transform="translate(168,243)"/>
<path d="M0 0 C0.66 0.33 1.32 0.66 2 1 C-0.09958993 2.8180472 -2.20428727 4.62950034 -4.3125 6.4375 C-5.20485352 7.2119043 -5.20485352 7.2119043 -6.11523438 8.00195312 C-6.98051758 8.74155273 -6.98051758 8.74155273 -7.86328125 9.49609375 C-8.39219971 9.95169678 -8.92111816 10.4072998 -9.46606445 10.87670898 C-11 12 -11 12 -14 13 C-14 12.34 -14 11.68 -14 11 C-13.34 10.67 -12.68 10.34 -12 10 C-12.33 8.68 -12.66 7.36 -13 6 C-10 5 -10 5 -8 4.5625 C-5.70962954 4.029376 -5.70962954 4.029376 -3 2 C-2.01 1.34 -1.02 0.68 0 0 Z " fill="#63B187" transform="translate(210,210)"/>
<path d="M0 0 C1.32 0.66 2.64 1.32 4 2 C2.35 3.65 0.7 5.3 -1 7 C-1.66 6.67 -2.32 6.34 -3 6 C-3.99 6.66 -4.98 7.32 -6 8 C-5.67 8.66 -5.34 9.32 -5 10 C-7.31 10.33 -9.62 10.66 -12 11 C-8.19588166 7.08060535 -4.18423892 3.50897269 0 0 Z " fill="#71AE67" transform="translate(247,163)"/>
<path d="M0 0 C0.33 0 0.66 0 1 0 C1.11605098 4.58312084 1.18720362 9.16586449 1.25 13.75 C1.28351563 15.05195313 1.31703125 16.35390625 1.3515625 17.6953125 C1.36445313 18.94570312 1.37734375 20.19609375 1.390625 21.484375 C1.41157227 22.63647461 1.43251953 23.78857422 1.45410156 24.97558594 C0.90987571 28.60024715 -0.19457206 29.73818439 -3 32 C-3.66 31.67 -4.32 31.34 -5 31 C-3.84826645 28.53199953 -2.95216435 26.95216435 -1 25 C-0.62826984 22.3817233 -0.62826984 22.3817233 -0.5859375 19.3359375 C-0.52792969 17.65371094 -0.52792969 17.65371094 -0.46875 15.9375 C-0.42234375 14.1740625 -0.42234375 14.1740625 -0.375 12.375 C-0.31699219 10.59996094 -0.31699219 10.59996094 -0.2578125 8.7890625 C-0.16331155 5.85953309 -0.07775442 2.93001403 0 0 Z " fill="#464645" transform="translate(254,119)"/>
<path d="M0 0 C1.65 1.32 3.3 2.64 5 4 C4.67 4.99 4.34 5.98 4 7 C1.1875 7.6875 1.1875 7.6875 -2 8 C-3.875 6.5625 -3.875 6.5625 -5 5 C-3.35 3.35 -1.7 1.7 0 0 Z " fill="#35BCA6" transform="translate(159,238)"/>
<path d="M0 0 C0 4.62217715 -3.13754889 6.55258923 -6.25 9.74609375 C-8.40885133 12.05099145 -8.40885133 12.05099145 -8 16 C-8.99 15.67 -9.98 15.34 -11 15 C-10.54337885 10.89040961 -10.19432019 8.68322896 -7 6 C-6.34 5.01 -5.68 4.02 -5 3 C-3.36504293 1.94895617 -1.70116376 0.94011682 0 0 Z " fill="#4A4A47" transform="translate(316,191)"/>
<path d="M0 0 C0.33 7.26 0.66 14.52 1 22 C1.66 21.67 2.32 21.34 3 21 C2.67 22.32 2.34 23.64 2 25 C1.01 25 0.02 25 -1 25 C-1.33 18.07 -1.66 11.14 -2 4 C-2.99 3.67 -3.98 3.34 -5 3 C-2.25 0 -2.25 0 0 0 Z " fill="#444443" transform="translate(255,185)"/>
<path d="M0 0 C0.66 1.32 1.32 2.64 2 4 C1.01 5.485 1.01 5.485 0 7 C-0.66 6.67 -1.32 6.34 -2 6 C-3.95885033 7.03594822 -3.95885033 7.03594822 -6 8.5 C-8.125 9.96875 -8.125 9.96875 -10 11 C-10.66 10.67 -11.32 10.34 -12 10 C-10.37744772 8.51814875 -8.75188112 7.03959744 -7.125 5.5625 C-6.22007812 4.73878906 -5.31515625 3.91507813 -4.3828125 3.06640625 C-2 1 -2 1 0 0 Z " fill="#66AF6D" transform="translate(230,177)"/>
<path d="M0 0 C0.33 0 0.66 0 1 0 C1.17426756 3.91610484 1.28084155 7.83121497 1.375 11.75 C1.45041016 13.41675781 1.45041016 13.41675781 1.52734375 15.1171875 C1.67307052 23.18073566 1.67307052 23.18073566 -0.36230469 25.65820312 C-2.0234375 26.765625 -2.0234375 26.765625 -5 28 C-4.505 26.515 -4.505 26.515 -4 25 C-3.34 25 -2.68 25 -2 25 C-1.34 16.75 -0.68 8.5 0 0 Z " fill="#434444" transform="translate(191,176)"/>
<path d="M0 0 C2 1.375 2 1.375 4 3 C4 3.66 4 4.32 4 5 C-1.94 5 -7.88 5 -14 5 C-10.26043767 2.50695845 -7.56885393 2.59819443 -3.1796875 2.34375 C-2.46039063 2.2303125 -1.74109375 2.116875 -1 2 C-0.67 1.34 -0.34 0.68 0 0 Z " fill="#4B494C" transform="translate(382,303)"/>
<path d="M0 0 C0 3.51716303 -0.82445585 4.37121748 -3 7 C-2.67 7.66 -2.34 8.32 -2 9 C-3.45738102 9.98058352 -4.91593675 10.95942132 -6.375 11.9375 C-7.18710937 12.48277344 -7.99921875 13.02804688 -8.8359375 13.58984375 C-11 15 -11 15 -13 16 C-11.3383196 11.87582937 -8.37661982 8.93445961 -5.375 5.75 C-4.859375 5.19570312 -4.34375 4.64140625 -3.8125 4.0703125 C-2.54574965 2.7097288 -1.27342185 1.35434163 0 0 Z " fill="#4A4A48" transform="translate(309,148)"/>
<path d="M0 0 C0.66 1.32 1.32 2.64 2 4 C-0.23407889 7.35111834 -1.26215824 8.81553956 -5.25 9.8125 C-6.1575 9.874375 -7.065 9.93625 -8 10 C-7.04367001 8.70684939 -6.08486149 7.41553147 -5.125 6.125 C-4.59132813 5.40570313 -4.05765625 4.68640625 -3.5078125 3.9453125 C-2 2 -2 2 0 0 Z " fill="#4B4B4B" transform="translate(318,138)"/>
<path d="M0 0 C0.66 0 1.32 0 2 0 C1.71468734 3.46624531 1.24222529 4.76274344 -1.28515625 7.23828125 C-2.20167969 7.92277344 -3.11820312 8.60726563 -4.0625 9.3125 C-4.98160156 10.00988281 -5.90070313 10.70726562 -6.84765625 11.42578125 C-7.55792969 11.94527344 -8.26820312 12.46476562 -9 13 C-9.33 12.34 -9.66 11.68 -10 11 C-8.74458443 8.48916886 -7.49936512 8.12874554 -5 7 C-5.33 6.34 -5.66 5.68 -6 5 C-5.38125 4.731875 -4.7625 4.46375 -4.125 4.1875 C-1.7004767 3.04443152 -1.7004767 3.04443152 0 0 Z " fill="#2CB0C5" transform="translate(122,278)"/>
<path d="M0 0 C0.66 0.33 1.32 0.66 2 1 C0.25500253 2.63067005 -1.49558788 4.25451247 -3.25 5.875 C-3.74113281 6.33519531 -4.23226562 6.79539063 -4.73828125 7.26953125 C-7.33862024 9.66184312 -9.72075115 11.64145405 -13 13 C-12.67 12.01 -12.34 11.02 -12 10 C-11.34 10 -10.68 10 -10 10 C-9.938125 9.401875 -9.87625 8.80375 -9.8125 8.1875 C-8.66445318 5.09660471 -6.89452948 4.4119656 -4 3 C-3.34 3 -2.68 3 -2 3 C-2 2.34 -2 1.68 -2 1 C-1.34 0.67 -0.68 0.34 0 0 Z " fill="#6DAF82" transform="translate(225,197)"/>
<path d="M0 0 C0.99 0.33 1.98 0.66 3 1 C-0.63 4.3 -4.26 7.6 -8 11 C-9.32 10.34 -10.64 9.68 -12 9 C-11.21753906 8.43410156 -10.43507813 7.86820313 -9.62890625 7.28515625 C-8.61699219 6.55167969 -7.60507812 5.81820313 -6.5625 5.0625 C-5.55316406 4.33160156 -4.54382813 3.60070312 -3.50390625 2.84765625 C-1.17707392 1.22678115 -1.17707392 1.22678115 0 0 Z " fill="#B7C771" transform="translate(430,20)"/>
<path d="M0 0 C0.33 0.66 0.66 1.32 1 2 C0.67 2.66 0.34 3.32 0 4 C-0.99 4.33 -1.98 4.66 -3 5 C-4.65637688 6.63044124 -4.65637688 6.63044124 -6.1875 8.5625 C-6.71730469 9.20316406 -7.24710937 9.84382813 -7.79296875 10.50390625 C-8.19128906 10.99761719 -8.58960938 11.49132812 -9 12 C-10.32 11.34 -11.64 10.68 -13 10 C-8.71 6.7 -4.42 3.4 0 0 Z " fill="#96BD45" transform="translate(333,94)"/>
<path d="M0 0 C0.66 0.33 1.32 0.66 2 1 C-0.29520023 5.72541224 -3.49666217 8.44991713 -8 11 C-8.66 11 -9.32 11 -10 11 C-8.55218207 7.55571735 -6.72305391 5.63869038 -3.875 3.25 C-3.15054687 2.63640625 -2.42609375 2.0228125 -1.6796875 1.390625 C-0.84824219 0.70226562 -0.84824219 0.70226562 0 0 Z " fill="#6EB9C9" transform="translate(10,364)"/>
<path d="M0 0 C0.66 0.33 1.32 0.66 2 1 C1.67 1.33 1.34 1.66 1 2 C1.66 2.66 2.32 3.32 3 4 C-1.455 6.97 -1.455 6.97 -6 10 C-6.66 9.67 -7.32 9.34 -8 9 C-5.36 6.03 -2.72 3.06 0 0 Z " fill="#4DA7B9" transform="translate(18,357)"/>
<path d="M0 0 C0 1.32 0 2.64 0 4 C-2.64738916 5.4606285 -3.89448334 6 -7 6 C-7.33 6.99 -7.66 7.98 -8 9 C-8.66 7.68 -9.32 6.36 -10 5 C-9.34 4.34 -8.68 3.68 -8 3 C-7.34 3 -6.68 3 -6 3 C-5.525625 2.505 -5.05125 2.01 -4.5625 1.5 C-3 0 -3 0 0 0 Z " fill="#17B8DB" transform="translate(46,337)"/>
<path d="M0 0 C0 3.19219704 -0.23605791 4.39608549 -2 7 C-3.64363134 7.72159424 -5.31050386 8.39351421 -7 9 C-7.33 9.66 -7.66 10.32 -8 11 C-10.5625 11.625 -10.5625 11.625 -13 12 C-8.87675353 7.74790208 -4.48717034 3.86364295 0 0 Z " fill="#49B092" transform="translate(173,224)"/>
<path d="M0 0 C0.33 0.66 0.66 1.32 1 2 C0.67 2.66 0.34 3.32 0 4 C0.66 4.33 1.32 4.66 2 5 C2 5.99 2 6.98 2 8 C1.01 8.33 0.02 8.66 -1 9 C-1.66 8.01 -2.32 7.02 -3 6 C-4.32 6.33 -5.64 6.66 -7 7 C-2.25 1.125 -2.25 1.125 0 0 Z " fill="#4A4C4A" transform="translate(228,206)"/>
<path d="M0 0 C2 1.8125 2 1.8125 4 4 C4 4.99 4 5.98 4 7 C5.32 6.34 6.64 5.68 8 5 C7.1875 6.9375 7.1875 6.9375 6 9 C5.01 9.33 4.02 9.66 3 10 C2.34 9.67 1.68 9.34 1 9 C1 7.35 1 5.7 1 4 C0.34 4 -0.32 4 -1 4 C-0.67 2.68 -0.34 1.36 0 0 Z " fill="#84C55B" transform="translate(402,62)"/>
<path d="M0 0 C0 0.99 0 1.98 0 3 C0.66 3.66 1.32 4.32 2 5 C-0.25 7.0625 -0.25 7.0625 -3 9 C-4.32 8.67 -5.64 8.34 -7 8 C-4.69 5.36 -2.38 2.72 0 0 Z " fill="#37A8BF" transform="translate(25,351)"/>
<path d="M0 0 C0.99 0.66 1.98 1.32 3 2 C3 2.66 3 3.32 3 4 C3.99 4 4.98 4 6 4 C6.33 5.98 6.66 7.96 7 10 C4.66666667 7.66666667 2.33333333 5.33333333 0 3 C-2.97 5.475 -2.97 5.475 -6 8 C-4.55746343 4.63408134 -2.66735273 2.48952921 0 0 Z " fill="#474746" transform="translate(279,229)"/>
<path d="M0 0 C0.33 0.66 0.66 1.32 1 2 C-0.26794445 5.80383334 -1.48165849 6.24082925 -5 8 C-7.8125 8.6875 -7.8125 8.6875 -10 9 C-6.83047153 5.73991357 -3.60062011 2.77762123 0 0 Z " fill="#91B94F" transform="translate(309,113)"/>
<path d="M0 0 C0.66 0 1.32 0 2 0 C1.34 1.98 0.68 3.96 0 6 C-1.65 6.33 -3.3 6.66 -5 7 C-5 6.01 -5 5.02 -5 4 C-5.99 3.67 -6.98 3.34 -8 3 C-6.68 2.67 -5.36 2.34 -4 2 C-4 2.66 -4 3.32 -4 4 C-3.34 4 -2.68 4 -2 4 C-1.67 3.01 -1.34 2.02 -1 1 C-0.67 0.67 -0.34 0.34 0 0 Z " fill="#98D340" transform="translate(414,58)"/>
<path d="M0 0 C0.86625 0.3403125 0.86625 0.3403125 1.75 0.6875 C1.75 1.6775 1.75 2.6675 1.75 3.6875 C-1.58333333 6.6875 -1.58333333 6.6875 -4.25 6.6875 C-4.25 5.6975 -4.25 4.7075 -4.25 3.6875 C-4.91 3.3575 -5.57 3.0275 -6.25 2.6875 C-2.80384615 -0.38942308 -2.80384615 -0.38942308 0 0 Z " fill="#595A5C" transform="translate(87.25,281.3125)"/>
<path d="M0 0 C1.65 0 3.3 0 5 0 C3.73058503 3.91402949 2.48832306 5.79072873 -1 8 C-2.2077558 4.37673261 -1.54311128 3.35853631 0 0 Z " fill="#4B4B4C" transform="translate(379,114)"/>
<path d="M0 0 C0.99 0.66 1.98 1.32 3 2 C1.88333826 5.34998521 1.25305075 5.79340222 -1.5625 7.6875 C-2.52349609 8.34298828 -2.52349609 8.34298828 -3.50390625 9.01171875 C-3.99761719 9.33785156 -4.49132812 9.66398437 -5 10 C-4.67 8.35 -4.34 6.7 -4 5 C-2.68 4.67 -1.36 4.34 0 4 C-0.33 3.01 -0.66 2.02 -1 1 C-0.67 0.67 -0.34 0.34 0 0 Z " fill="#9EC543" transform="translate(337,99)"/>
<path d="M0 0 C0.33 0.99 0.66 1.98 1 3 C0.34 3 -0.32 3 -1 3 C-1 3.66 -1 4.32 -1 5 C-1.66 5 -2.32 5 -3 5 C-3 5.99 -3 6.98 -3 8 C-5.31 8.33 -7.62 8.66 -10 9 C-9.34 8.67 -8.68 8.34 -8 8 C-8 7.34 -8 6.68 -8 6 C-6.25 4.4921875 -6.25 4.4921875 -4 2.875 C-3.2575 2.33617188 -2.515 1.79734375 -1.75 1.2421875 C-1.1725 0.83226563 -0.595 0.42234375 0 0 Z " fill="#9DBF50" transform="translate(344,85)"/>
<path d="M0 0 C1.875 0.25 1.875 0.25 4 1 C5.25 3.0625 5.25 3.0625 6 5 C3.6875 7.0625 3.6875 7.0625 1 9 C0.01 8.67 -0.98 8.34 -2 8 C-1.34 8 -0.68 8 0 8 C0 5.36 0 2.72 0 0 Z " fill="#49C0A9" transform="translate(391,76)"/>
<path d="M0 0 C0.66 0.33 1.32 0.66 2 1 C0.88121617 2.17262904 -0.24523051 3.33795138 -1.375 4.5 C-2.00148438 5.1496875 -2.62796875 5.799375 -3.2734375 6.46875 C-5 8 -5 8 -7 8 C-7.33 6.68 -7.66 5.36 -8 4 C-7.360625 3.87625 -6.72125 3.7525 -6.0625 3.625 C-5.0415625 3.315625 -5.0415625 3.315625 -4 3 C-3.67 2.34 -3.34 1.68 -3 1 C-2.01 0.67 -1.02 0.34 0 0 Z " fill="#9CCA46" transform="translate(380,65)"/>
<path d="M0 0 C0.66 0.33 1.32 0.66 2 1 C0.8803014 2.00593243 -0.2459412 3.0045849 -1.375 4 C-2.00148438 4.556875 -2.62796875 5.11375 -3.2734375 5.6875 C-5 7 -5 7 -7 7 C-7 5.68 -7 4.36 -7 3 C-7.66 2.67 -8.32 2.34 -9 2 C-8.01 1.67 -7.02 1.34 -6 1 C-6 1.66 -6 2.32 -6 3 C-5.05125 2.484375 -4.1025 1.96875 -3.125 1.4375 C-2.09375 0.963125 -1.0625 0.48875 0 0 Z " fill="#30B3C9" transform="translate(53,334)"/>
<path d="M0 0 C0.66 0 1.32 0 2 0 C2 0.66 2 1.32 2 2 C3.32 2.33 4.64 2.66 6 3 C5.67 3.99 5.34 4.98 5 6 C2.69 5.34 0.38 4.68 -2 4 C-1.34 2.68 -0.68 1.36 0 0 Z " fill="#515152" transform="translate(105,305)"/>
<path d="M0 0 C-0.57584432 2.38564077 -1.22227595 4.66682784 -2 7 C-2.99 7.33 -3.98 7.66 -5 8 C-5.66 7.67 -6.32 7.34 -7 7 C-4.60526316 0 -4.60526316 0 0 0 Z " fill="#B2D336" transform="translate(396,49)"/>
<path d="M0 0 C0.33 0.66 0.66 1.32 1 2 C1.66 2.33 2.32 2.66 3 3 C0.69 4.65 -1.62 6.3 -4 8 C-4.66 7.01 -5.32 6.02 -6 5 C-5.67 4.34 -5.34 3.68 -5 3 C-3.68 3 -2.36 3 -1 3 C-0.67 2.01 -0.34 1.02 0 0 Z " fill="#1BACC9" transform="translate(77,313)"/>
<path d="M0 0 C-2.64 1.98 -5.28 3.96 -8 6 C-8.33 4.68 -8.66 3.36 -9 2 C-8.34 2 -7.68 2 -7 2 C-7 1.34 -7 0.68 -7 0 C-2.25 -1.125 -2.25 -1.125 0 0 Z " fill="#35B4BC" transform="translate(133,275)"/>
<path d="M0 0 C0.66 1.32 1.32 2.64 2 4 C-1.33333333 5.66666667 -4.66666667 7.33333333 -8 9 C-6.4169423 4.7257442 -3.49431596 2.73468206 0 0 Z " fill="#2AB2BA" transform="translate(112,275)"/>
<path d="M0 0 C0.33 0.99 0.66 1.98 1 3 C0.67 3.66 0.34 4.32 0 5 C-0.66 5 -1.32 5 -2 5 C-2.33 5.99 -2.66 6.98 -3 8 C-4.32 7.34 -5.64 6.68 -7 6 C-4.69 4.02 -2.38 2.04 0 0 Z " fill="#77B457" transform="translate(268,146)"/>
<path d="M0 0 C0.33 0 0.66 0 1 0 C1 1.65 1 3.3 1 5 C0.01 5 -0.98 5 -2 5 C-2.2475 5.61875 -2.495 6.2375 -2.75 6.875 C-4.22047178 9.37480203 -5.41403076 9.83316022 -8 11 C-7.59007813 10.45730469 -7.18015625 9.91460937 -6.7578125 9.35546875 C-6.21898438 8.64003906 -5.68015625 7.92460937 -5.125 7.1875 C-4.59132813 6.47980469 -4.05765625 5.77210938 -3.5078125 5.04296875 C-2.29185219 3.39543703 -1.13583859 1.70375789 0 0 Z " fill="#484849" transform="translate(77,264)"/>
<path d="M0 0 C0.33 0.99 0.66 1.98 1 3 C1.66 3.33 2.32 3.66 3 4 C1.14375 4.680625 1.14375 4.680625 -0.75 5.375 C-3.59245495 6.4384007 -6.32663046 7.55192483 -9 9 C-6.31941902 5.42589203 -3.57410797 2.68058098 0 0 Z " fill="#444444" transform="translate(184,242)"/>
<path d="M0 0 C0.66 0.33 1.32 0.66 2 1 C2.625 3.0625 2.625 3.0625 3 5 C1.35 5.66 -0.3 6.32 -2 7 C-2.6875 5.1875 -2.6875 5.1875 -3 3 C-1.5625 1.25 -1.5625 1.25 0 0 Z " fill="#61B67F" transform="translate(209,194)"/>
<path d="M0 0 C0.66 0.33 1.32 0.66 2 1 C0.64978174 5.41889613 -1.26115668 7.34345343 -5 10 C-5.33 8.68 -5.66 7.36 -6 6 C-5.38125 5.7525 -4.7625 5.505 -4.125 5.25 C-1.64931313 3.79371361 -1.04874998 2.62187494 0 0 Z " fill="#484949" transform="translate(180,284)"/>
<path d="M0 0 C0.66 0.33 1.32 0.66 2 1 C2 6.94 2 12.88 2 19 C1.67 19 1.34 19 1 19 C1 13.72 1 8.44 1 3 C0.01 2.67 -0.98 2.34 -2 2 C-1.34 1.34 -0.68 0.68 0 0 Z " fill="#404242" transform="translate(190,237)"/>
<path d="M0 0 C0.66 0.66 1.32 1.32 2 2 C2.66 1.34 3.32 0.68 4 0 C4.99 0.33 5.98 0.66 7 1 C4.6875 3.5 4.6875 3.5 2 6 C1.01 6 0.02 6 -1 6 C-0.67 4.02 -0.34 2.04 0 0 Z " fill="#404345" transform="translate(151,227)"/>
<path d="M0 0 C-1.6396875 0.8971875 -1.6396875 0.8971875 -3.3125 1.8125 C-5.91074129 3.29044697 -8.04349493 4.69822933 -10 7 C-10.66 6.67 -11.32 6.34 -12 6 C-5.84787736 -1.81485849 -5.84787736 -1.81485849 0 0 Z " fill="#353635" transform="translate(345,115)"/>
<path d="M0 0 C0 3 0 3 -1 6 C-2.62332967 7.38576923 -4.28724465 8.72641268 -6 10 C-6.66 9.67 -7.32 9.34 -8 9 C-5.36 6.03 -2.72 3.06 0 0 Z " fill="#424242" transform="translate(294,165)"/>
<path d="M0 0 C1.65 0 3.3 0 5 0 C4.07038578 1.15224028 3.1309875 2.29659176 2.1875 3.4375 C1.40439453 4.39462891 1.40439453 4.39462891 0.60546875 5.37109375 C-1 7 -1 7 -4 8 C-3.67 6.68 -3.34 5.36 -3 4 C-2.01 4 -1.02 4 0 4 C0 2.68 0 1.36 0 0 Z " fill="#A6C353" transform="translate(360,80)"/>
<path d="M0 0 C0.66 0 1.32 0 2 0 C1 3 1 3 -1 4 C-1.65772428 7.02934491 -1.65772428 7.02934491 -2 10 C-2.66 10 -3.32 10 -4 10 C-4 9.34 -4 8.68 -4 8 C-4.66 7.67 -5.32 7.34 -6 7 C-5.01 6.67 -4.02 6.34 -3 6 C-2.40929986 4.05396726 -2.40929986 4.05396726 -2 2 C-1.34 1.34 -0.68 0.68 0 0 Z " fill="#A3CD49" transform="translate(414,52)"/>
<path d="M0 0 C1.98 0 3.96 0 6 0 C5.67 0.99 5.34 1.98 5 3 C2.4375 4.1875 2.4375 4.1875 0 5 C0 3.35 0 1.7 0 0 Z " fill="#26ADC9" transform="translate(100,294)"/>
<path d="M0 0 C0 3 0 3 -1.2421875 4.60546875 C-1.78101563 5.12753906 -2.31984375 5.64960938 -2.875 6.1875 C-3.40867188 6.71730469 -3.94234375 7.24710938 -4.4921875 7.79296875 C-6 9 -6 9 -8 9 C-6.4169423 4.7257442 -3.49431596 2.73468206 0 0 Z " fill="#36B2A5" transform="translate(147,246)"/>
<path d="M0 0 C0.99 0.33 1.98 0.66 3 1 C0.19195732 3.96404505 -2.18315774 6.44499019 -6 8 C-6 7.34 -6 6.68 -6 6 C-5.34 6 -4.68 6 -4 6 C-3.67 5.01 -3.34 4.02 -3 3 C-2.34 3 -1.68 3 -1 3 C-0.67 2.01 -0.34 1.02 0 0 Z " fill="#81AC5B" transform="translate(277,152)"/>
<path d="M0 0 C-5.75 5 -5.75 5 -8 5 C-8.33 3.68 -8.66 2.36 -9 1 C-3 -1 -3 -1 0 0 Z " fill="#27A8C6" transform="translate(72,322)"/>
<path d="M0 0 C0.99 0.33 1.98 0.66 3 1 C0.85668861 3.14331139 -0.14086424 3.514193 -3 4.25 C-4.051875 4.53617187 -4.051875 4.53617187 -5.125 4.828125 C-5.74375 4.88484375 -6.3625 4.9415625 -7 5 C-7.66 4.34 -8.32 3.68 -9 3 C-8.43410156 2.86722656 -7.86820313 2.73445313 -7.28515625 2.59765625 C-6.18494141 2.33275391 -6.18494141 2.33275391 -5.0625 2.0625 C-4.33160156 1.88847656 -3.60070312 1.71445312 -2.84765625 1.53515625 C-1.00030102 1.16112431 -1.00030102 1.16112431 0 0 Z " fill="#505050" transform="translate(155,305)"/>
<path d="M0 0 C0.6875 1.6875 0.6875 1.6875 1 4 C-0.4375 6.75 -0.4375 6.75 -2 9 C-2.66 7.68 -3.32 6.36 -4 5 C-2.68 3.35 -1.36 1.7 0 0 Z " fill="#484849" transform="translate(68,275)"/>
<path d="M0 0 C0.66 0.33 1.32 0.66 2 1 C-0.88341534 5.21422242 -3.04303419 6.76075855 -8 8 C-5.33333333 5.33333333 -2.66666667 2.66666667 0 0 Z " fill="#59AB86" transform="translate(186,213)"/>
<path d="M0 0 C0.95465783 2.16967689 1.14401212 3.56328793 0.3984375 5.82421875 C-0.35870385 7.5684743 -1.17609198 9.28627131 -2 11 C-3.25 9.4375 -3.25 9.4375 -4 7 C-2.93237266 4.42998985 -1.53455057 2.3469597 0 0 Z " fill="#474747" transform="translate(188,268)"/>
<path d="M0 0 C0.99 0.495 0.99 0.495 2 1 C1.01 1.495 1.01 1.495 0 2 C0 1.34 0 0.68 0 0 Z M-2 1 C-1.34 1.66 -0.68 2.32 0 3 C-1.98 5.97 -1.98 5.97 -4 9 C-4.66 7.68 -5.32 6.36 -6 5 C-4.68 3.68 -3.36 2.36 -2 1 Z " fill="#50514E" transform="translate(276,230)"/>
<path d="M0 0 C0.66 0.33 1.32 0.66 2 1 C-0.31 3.31 -2.62 5.62 -5 8 C-5.33 7.01 -5.66 6.02 -6 5 C-2.25 1.125 -2.25 1.125 0 0 Z " fill="#4A4A4B" transform="translate(343,160)"/>
<path d="M0 0 C-0.33 2.31 -0.66 4.62 -1 7 C-2.32 6.34 -3.64 5.68 -5 5 C-5 4.34 -5 3.68 -5 3 C-1.42307692 0 -1.42307692 0 0 0 Z " fill="#A5CA42" transform="translate(350,81)"/>
<path d="M0 0 C0 3.52809907 -0.64276511 4.46815512 -3 7 C-3.99 7 -4.98 7 -6 7 C-4.60667426 3.63279613 -3.0210714 2.0140476 0 0 Z " fill="#A9C647" transform="translate(357,75)"/>
<path d="M0 0 C1.32 1.32 2.64 2.64 4 4 C3.34 4 2.68 4 2 4 C1.67 5.32 1.34 6.64 1 8 C0.34 8 -0.32 8 -1 8 C-0.67 5.36 -0.34 2.72 0 0 Z " fill="#A9D32D" transform="translate(379,58)"/>
<path d="M0 0 C2.25 0.25 2.25 0.25 4 1 C-1.75 6 -1.75 6 -4 6 C-4 4 -4 4 -2.25 1.8125 C-1.5075 1.214375 -0.765 0.61625 0 0 Z " fill="#4D4E4E" transform="translate(173,211)"/>
<path d="M0 0 C0.66 0.33 1.32 0.66 2 1 C1.67 2.98 1.34 4.96 1 7 C0.67 6.01 0.34 5.02 0 4 C-2.475 5.485 -2.475 5.485 -5 7 C-3.70700306 4.11562221 -2.34058637 2.12780579 0 0 Z " fill="#A9D13B" transform="translate(422,45)"/>
<path d="M0 0 C-0.33 1.65 -0.66 3.3 -1 5 C-2.32 4.67 -3.64 4.34 -5 4 C-5 3.01 -5 2.02 -5 1 C-3 0 -3 0 0 0 Z " fill="#AED341" transform="translate(412,36)"/>
<path d="M0 0 C0.99 0.33 1.98 0.66 3 1 C2 4 2 4 -0.0625 5.1875 C-0.701875 5.455625 -1.34125 5.72375 -2 6 C-2.66 5.34 -3.32 4.68 -4 4 C-2.68 2.68 -1.36 1.36 0 0 Z " fill="#50AD76" transform="translate(199,202)"/>
<path d="M0 0 C0.33 0.66 0.66 1.32 1 2 C1.66 2.33 2.32 2.66 3 3 C2.34 3 1.68 3 1 3 C0.67 3.99 0.34 4.98 0 6 C-0.99 5.67 -1.98 5.34 -3 5 C-1.125 1.125 -1.125 1.125 0 0 Z " fill="#5EB375" transform="translate(215,189)"/>
<path d="M0 0 C0 4.38968456 -2.12805101 5.76905739 -5 9 C-5.66 8.67 -6.32 8.34 -7 8 C-4.69 5.36 -2.38 2.72 0 0 Z " fill="#424241" transform="translate(309,148)"/>
<path d="M0 0 C0.99 0.33 1.98 0.66 3 1 C0.36 2.98 -2.28 4.96 -5 7 C-3.38262276 3.76524552 -2.52370777 2.29427979 0 0 Z " fill="#85B255" transform="translate(298,135)"/>
<path d="M0 0 C1.98 0 3.96 0 6 0 C5.67 1.65 5.34 3.3 5 5 C1.125 2.25 1.125 2.25 0 0 Z " fill="#4E4E4E" transform="translate(249,115)"/>
<path d="M0 0 C1.32 0.66 2.64 1.32 4 2 C4 2.66 4 3.32 4 4 C2.35 4.33 0.7 4.66 -1 5 C-1.33 4.34 -1.66 3.68 -2 3 C-1.34 2.01 -0.68 1.02 0 0 Z " fill="#26C3B4" transform="translate(386,77)"/>
<path d="M0 0 C0.99 0.33 1.98 0.66 3 1 C1.37660195 2.70884005 -0.29319053 4.37446717 -2 6 C-2.66 6 -3.32 6 -4 6 C-4 5.01 -4 4.02 -4 3 C-2.1875 1.25 -2.1875 1.25 0 0 Z " fill="#C8D491" transform="translate(430,20)"/>
<path d="M0 0 C0.99 0 1.98 0 3 0 C3 0.66 3 1.32 3 2 C4.32 2.33 5.64 2.66 7 3 C7 3.33 7 3.66 7 4 C5.02 4 3.04 4 1 4 C0.67 2.68 0.34 1.36 0 0 Z " fill="#0BC3CE" transform="translate(99,290)"/>
<path d="M0 0 C0.33 0.99 0.66 1.98 1 3 C-1.31 3.66 -3.62 4.32 -6 5 C-3.74193548 0 -3.74193548 0 0 0 Z " fill="#1ABAD1" transform="translate(99,290)"/>
<path d="M0 0 C0.66 0.66 1.32 1.32 2 2 C1.34 3.65 0.68 5.3 0 7 C-1.32 6.34 -2.64 5.68 -4 5 C-4 4.34 -4 3.68 -4 3 C-2 1.375 -2 1.375 0 0 Z " fill="#454747" transform="translate(142,276)"/>
<path d="M0 0 C1.32 0.66 2.64 1.32 4 2 C1.525 3.485 1.525 3.485 -1 5 C-1.66 4.34 -2.32 3.68 -3 3 C-2.01 2.01 -1.02 1.02 0 0 Z " fill="#28B1B1" transform="translate(131,259)"/>
<path d="M0 0 C0.66 0.33 1.32 0.66 2 1 C1.34 2.65 0.68 4.3 0 6 C-1.32 6 -2.64 6 -4 6 C-4 5.01 -4 4.02 -4 3 C-2 1.3125 -2 1.3125 0 0 Z " fill="#44CDBF" transform="translate(385,76)"/>
<path d="M0 0 C0.99 0 1.98 0 3 0 C1.95125002 2.62187494 1.35068687 3.79371361 -1.125 5.25 C-1.74375 5.4975 -2.3625 5.745 -3 6 C-3.33 5.01 -3.66 4.02 -4 3 C-2.68 2.34 -1.36 1.68 0 1 C0 0.67 0 0.34 0 0 Z " fill="#9FCD4B" transform="translate(413,62)"/>
<path d="M0 0 C0.66 0.33 1.32 0.66 2 1 C1.67 1.99 1.34 2.98 1 4 C-0.65 4.33 -2.3 4.66 -4 5 C-4.33 4.01 -4.66 3.02 -5 2 C-4.360625 1.855625 -3.72125 1.71125 -3.0625 1.5625 C-1.02454854 1.18992819 -1.02454854 1.18992819 0 0 Z " fill="#B1DB30" transform="translate(420,49)"/>
<path d="M0 0 C0.99 0.495 0.99 0.495 2 1 C1.01 1.495 1.01 1.495 0 2 C0 1.34 0 0.68 0 0 Z " fill="#AAAAAA" transform="translate(407,55)"/>
<path d="M0 0 C2 1 2 1 2 1 Z " fill="#FFFF00" transform="translate(423,42)"/>
<path d="" fill="#FFFFFF" transform="translate(0,0)"/>
<path d="" fill="#FFFFFF" transform="translate(0,0)"/>
<path d="" fill="#FFFFFF" transform="translate(0,0)"/>
<path d="" fill="#FFFFFF" transform="translate(0,0)"/>
<path d="" fill="#FFFFFF" transform="translate(0,0)"/>
<path d="" fill="#FFFFFF" transform="translate(0,0)"/>
<path d="" fill="#FFFFFF" transform="translate(0,0)"/>
<path d="" fill="#FFFFFF" transform="translate(0,0)"/>
<path d="" fill="#FFFFFF" transform="translate(0,0)"/>
<path d="" fill="#FFFFFF" transform="translate(0,0)"/>
<path d="" fill="#FFFFFF" transform="translate(0,0)"/>
<path d="" fill="#FFFFFF" transform="translate(0,0)"/>
<path d="" fill="#FFFFFF" transform="translate(0,0)"/>
<path d="" fill="#FFFFFF" transform="translate(0,0)"/>
<path d="" fill="#FFFFFF" transform="translate(0,0)"/>
<path d="" fill="#FFFFFF" transform="translate(0,0)"/>
<path d="" fill="#FFFFFF" transform="translate(0,0)"/>
<path d="" fill="#FFFFFF" transform="translate(0,0)"/>
<path d="" fill="#FFFFFF" transform="translate(0,0)"/>
<path d="" fill="#FFFFFF" transform="translate(0,0)"/>
<path d="" fill="#FFFFFF" transform="translate(0,0)"/>
<path d="" fill="#FFFFFF" transform="translate(0,0)"/>
<path d="" fill="#FFFFFF" transform="translate(0,0)"/>
<path d="" fill="#FFFFFF" transform="translate(0,0)"/>
<path d="" fill="#FFFFFF" transform="translate(0,0)"/>
<path d="" fill="#FFFFFF" transform="translate(0,0)"/>
<path d="" fill="#FFFFFF" transform="translate(0,0)"/>
<path d="" fill="#FFFFFF" transform="translate(0,0)"/>
<path d="" fill="#FFFFFF" transform="translate(0,0)"/>
<path d="" fill="#FFFFFF" transform="translate(0,0)"/>
<path d="" fill="#FFFFFF" transform="translate(0,0)"/>
<path d="" fill="#FFFFFF" transform="translate(0,0)"/>
<path d="" fill="#FFFFFF" transform="translate(0,0)"/>
<path d="" fill="#FFFFFF" transform="translate(0,0)"/>
<path d="" fill="#FFFFFF" transform="translate(0,0)"/>
<path d="" fill="#FFFFFF" transform="translate(0,0)"/>
<path d="" fill="#FFFFFF" transform="translate(0,0)"/>
<path d="" fill="#FFFFFF" transform="translate(0,0)"/>
<path d="" fill="#FFFFFF" transform="translate(0,0)"/>
<path d="" fill="#FFFFFF" transform="translate(0,0)"/>
<path d="" fill="#FFFFFF" transform="translate(0,0)"/>
<path d="" fill="#FFFFFF" transform="translate(0,0)"/>
<path d="" fill="#FFFFFF" transform="translate(0,0)"/>
<path d="" fill="#FFFFFF" transform="translate(0,0)"/>
<path d="" fill="#FFFFFF" transform="translate(0,0)"/>
<path d="" fill="#FFFFFF" transform="translate(0,0)"/>
<path d="" fill="#FFFFFF" transform="translate(0,0)"/>
<path d="" fill="#FFFFFF" transform="translate(0,0)"/>
<path d="" fill="#FFFFFF" transform="translate(0,0)"/>
<path d="" fill="#FFFFFF" transform="translate(0,0)"/>
<path d="" fill="#FFFFFF" transform="translate(0,0)"/>
<path d="" fill="#FFFFFF" transform="translate(0,0)"/>
<path d="" fill="#FFFFFF" transform="translate(0,0)"/>
<path d="" fill="#FFFFFF" transform="translate(0,0)"/>
<path d="" fill="#FFFFFF" transform="translate(0,0)"/>
<path d="" fill="#FFFFFF" transform="translate(0,0)"/>
<path d="" fill="#FFFFFF" transform="translate(0,0)"/>
<path d="" fill="#FFFFFF" transform="translate(0,0)"/>
<path d="" fill="#FFFFFF" transform="translate(0,0)"/>
<path d="" fill="#FFFFFF" transform="translate(0,0)"/>
<path d="" fill="#FFFFFF" transform="translate(0,0)"/>
<path d="" fill="#FFFFFF" transform="translate(0,0)"/>
<path d="" fill="#FFFFFF" transform="translate(0,0)"/>
<path d="" fill="#FFFF00" transform="translate(0,0)"/>
<path d="" fill="#FFFFFF" transform="translate(0,0)"/>
<path d="" fill="#FFFF00" transform="translate(0,0)"/>
<path d="" fill="#FFFFFF" transform="translate(0,0)"/>
<path d="" fill="#FFFFFF" transform="translate(0,0)"/>
<path d="" fill="#FFFFFF" transform="translate(0,0)"/>
<path d="" fill="#FFFF00" transform="translate(0,0)"/>
<path d="" fill="#AAAA55" transform="translate(0,0)"/>
<path d="" fill="#FFFF00" transform="translate(0,0)"/>
<path d="" fill="#FFFF00" transform="translate(0,0)"/>
<path d="" fill="#FFFFFF" transform="translate(0,0)"/>
<path d="" fill="#FFFFFF" transform="translate(0,0)"/>
<path d="" fill="#FFFFFF" transform="translate(0,0)"/>
<path d="" fill="#FFFFFF" transform="translate(0,0)"/>
<path d="" fill="#FFFFFF" transform="translate(0,0)"/>
<path d="" fill="#FFFFFF" transform="translate(0,0)"/>
<path d="" fill="#FFFFFF" transform="translate(0,0)"/>
</svg>
